<svg xmlns="http://www.w3.org/2000/svg" xmlns:xlink="http://www.w3.org/1999/xlink" width="1080" zoomAndPan="magnify" viewBox="0 0 810 809.999993" height="1080" preserveAspectRatio="xMidYMid meet" version="1.0"><defs><clipPath id="d32b78e70f"><path d="M 329 392 L 523 392 L 523 423.730469 L 329 423.730469 Z M 329 392 " clip-rule="nonzero"/></clipPath><clipPath id="de692821d9"><path d="M 304 392 L 336 392 L 336 423.730469 L 304 423.730469 Z M 304 392 " clip-rule="nonzero"/></clipPath><clipPath id="ed29cc90e3"><path d="M 320 386.230469 L 326 386.230469 L 326 397 L 320 397 Z M 320 386.230469 " clip-rule="nonzero"/></clipPath><clipPath id="9432e300cd"><path d="M 316 386.230469 L 331 386.230469 L 331 391 L 316 391 Z M 316 386.230469 " clip-rule="nonzero"/></clipPath></defs><rect x="-81" width="972" fill="#ffffff" y="-80.999999" height="971.999992" fill-opacity="1"/><rect x="-81" width="972" fill="#ffffff" y="-80.999999" height="971.999992" fill-opacity="1"/><g clip-path="url(#d32b78e70f)"><path fill="#ff0000" d="M 335.28125 392.882812 L 522.742188 392.882812 L 517.339844 423.761719 L 329.75 423.761719 C 330.421875 423.292969 331.074219 422.789062 331.707031 422.25 C 336.078125 418.53125 339.027344 413.527344 339.945312 408.269531 C 340.867188 403.015625 339.667969 398.007812 336.601562 394.292969 C 336.1875 393.792969 335.746094 393.320312 335.28125 392.882812 Z M 335.28125 392.882812 " fill-opacity="1" fill-rule="evenodd"/></g><g clip-path="url(#de692821d9)"><path fill="#ffffff" d="M 322.117188 397.179688 C 320.902344 397.179688 320.089844 396.195312 320.300781 394.980469 C 320.511719 393.765625 321.671875 392.78125 322.886719 392.78125 C 327.164062 392.78125 330.734375 394.515625 333.046875 397.316406 C 335.359375 400.121094 336.414062 403.992188 335.664062 408.269531 C 334.917969 412.546875 332.503906 416.421875 329.214844 419.222656 C 325.917969 422.027344 321.742188 423.761719 317.464844 423.761719 C 314.160156 423.761719 311.21875 422.707031 308.972656 420.867188 C 306.722656 419.03125 305.171875 416.410156 304.644531 413.277344 C 304.457031 412.128906 305.292969 410.882812 306.507812 410.492188 C 307.722656 410.101562 308.863281 410.71875 309.050781 411.867188 C 309.425781 414.109375 310.535156 415.980469 312.140625 417.292969 C 313.746094 418.605469 315.859375 419.359375 318.238281 419.359375 C 321.296875 419.359375 324.289062 418.117188 326.648438 416.109375 C 329.003906 414.105469 330.730469 411.332031 331.265625 408.269531 C 331.800781 405.207031 331.046875 402.433594 329.390625 400.429688 C 327.734375 398.421875 325.179688 397.179688 322.117188 397.179688 Z M 322.117188 397.179688 " fill-opacity="1" fill-rule="nonzero"/></g><path fill="#ffffff" d="M 322.886719 392.78125 C 324.101562 392.78125 324.914062 393.765625 324.703125 394.980469 C 324.488281 396.195312 323.332031 397.179688 322.117188 397.179688 L 289.304688 397.179688 C 288.089844 397.179688 287.277344 396.195312 287.488281 394.980469 C 287.703125 393.765625 288.859375 392.78125 290.074219 392.78125 Z M 322.886719 392.78125 " fill-opacity="1" fill-rule="nonzero"/><path fill="#ffffff" d="M 307.234375 410.371094 C 308.449219 410.371094 309.261719 411.355469 309.050781 412.574219 C 308.835938 413.789062 307.679688 414.769531 306.464844 414.769531 L 296.902344 414.769531 C 295.6875 414.769531 294.878906 413.789062 295.089844 412.574219 C 295.300781 411.355469 296.457031 410.371094 297.671875 410.371094 Z M 307.234375 410.371094 " fill-opacity="1" fill-rule="nonzero"/><path fill="#ffffff" d="M 308.773438 401.578125 C 309.988281 401.578125 310.800781 402.558594 310.585938 403.777344 C 310.375 404.992188 309.21875 405.976562 308.003906 405.976562 L 293.628906 405.976562 C 292.417969 405.976562 291.601562 404.992188 291.816406 403.777344 C 292.027344 402.558594 293.1875 401.578125 294.402344 401.578125 Z M 308.773438 401.578125 " fill-opacity="1" fill-rule="nonzero"/><path fill="#ffffff" d="M 319.886719 400.847656 C 320.003906 400.199219 320.621094 399.675781 321.269531 399.675781 C 321.914062 399.675781 322.347656 400.199219 322.234375 400.847656 L 321.039062 407.691406 L 324.003906 411.292969 C 324.382812 411.75 324.253906 412.492188 323.714844 412.953125 C 323.175781 413.410156 322.433594 413.410156 322.058594 412.953125 L 318.824219 409.035156 C 318.636719 408.820312 318.546875 408.515625 318.605469 408.179688 Z M 319.886719 400.847656 " fill-opacity="1" fill-rule="nonzero"/><g clip-path="url(#ed29cc90e3)"><path fill="#ffffff" d="M 324.46875 393.941406 C 324.257812 395.15625 323.101562 396.140625 321.886719 396.140625 C 320.671875 396.140625 319.859375 395.15625 320.070312 393.941406 L 320.90625 389.160156 C 321.121094 387.949219 322.277344 386.960938 323.492188 386.960938 C 324.707031 386.960938 325.519531 387.949219 325.308594 389.160156 Z M 324.46875 393.941406 " fill-opacity="1" fill-rule="nonzero"/></g><g clip-path="url(#9432e300cd)"><path fill="#ffffff" d="M 318.070312 390.628906 C 316.855469 390.628906 316.042969 389.640625 316.257812 388.429688 C 316.46875 387.214844 317.625 386.230469 318.839844 386.230469 L 328.402344 386.230469 C 329.613281 386.230469 330.429688 387.214844 330.214844 388.429688 C 330.003906 389.640625 328.84375 390.628906 327.628906 390.628906 Z M 318.070312 390.628906 " fill-opacity="1" fill-rule="nonzero"/></g><path fill="#fefefe" d="M 351.042969 400.390625 L 348.257812 416.320312 L 357.21875 416.320312 L 357.742188 413.324219 L 352.660156 413.324219 L 354.925781 400.390625 Z M 359.078125 416.320312 L 362.960938 416.320312 L 365.746094 400.390625 L 361.867188 400.390625 Z M 365.773438 416.320312 L 369.652344 416.320312 L 371.328125 406.746094 L 373.238281 416.320312 L 376.367188 416.320312 L 381.601562 406.765625 L 379.929688 416.320312 L 383.808594 416.320312 L 386.597656 400.390625 L 382.035156 400.390625 L 375.683594 411.417969 L 373.144531 400.390625 L 368.558594 400.390625 Z M 386.601562 416.320312 L 390.480469 416.320312 L 393.265625 400.390625 L 389.390625 400.390625 Z M 394.675781 403.5 L 398.894531 403.5 L 396.652344 416.320312 L 400.53125 416.320312 L 402.777344 403.5 L 406.996094 403.5 L 407.539062 400.390625 L 395.21875 400.390625 Z M 419.246094 400.390625 L 409.492188 400.390625 L 406.703125 416.320312 L 416.460938 416.320312 L 417.003906 413.210938 L 411.128906 413.210938 L 411.738281 409.714844 L 416.933594 409.714844 L 417.460938 406.722656 L 412.261719 406.722656 L 412.828125 403.5 L 418.703125 403.5 Z M 427.730469 400.390625 L 421.765625 400.390625 L 418.976562 416.320312 L 424.945312 416.320312 C 430.027344 416.320312 433.863281 413.074219 434.6875 408.355469 C 435.519531 403.613281 432.816406 400.390625 427.730469 400.390625 Z M 423.445312 412.960938 L 425.066406 403.703125 L 426.902344 403.703125 C 429.832031 403.703125 431.253906 405.425781 430.742188 408.355469 C 430.226562 411.28125 428.210938 412.960938 425.285156 412.960938 Z M 457.363281 408.308594 C 458.199219 403.523438 455.179688 400.164062 450.644531 400.164062 C 446.128906 400.164062 441.867188 403.523438 441.027344 408.308594 C 440.1875 413.097656 443.273438 416.476562 447.789062 416.476562 C 452.304688 416.476562 456.523438 413.097656 457.363281 408.308594 Z M 444.996094 408.308594 C 445.492188 405.472656 447.441406 403.683594 450.027344 403.683594 C 452.566406 403.683594 453.910156 405.472656 453.414062 408.308594 C 452.925781 411.101562 450.949219 412.9375 448.40625 412.9375 C 445.820312 412.9375 444.507812 411.101562 444.996094 408.308594 Z M 458.117188 416.320312 L 461.996094 416.320312 L 463.125 409.875 L 467.980469 409.875 L 468.507812 406.855469 L 463.652344 406.855469 L 464.242188 403.5 L 470.730469 403.5 L 471.273438 400.390625 L 460.902344 400.390625 Z M 470.527344 416.320312 L 474.40625 416.320312 L 475.535156 409.875 L 480.390625 409.875 L 480.917969 406.855469 L 476.0625 406.855469 L 476.652344 403.5 L 483.140625 403.5 L 483.683594 400.390625 L 473.316406 400.390625 Z M 495.480469 400.390625 L 485.726562 400.390625 L 482.9375 416.320312 L 492.695312 416.320312 L 493.238281 413.210938 L 487.363281 413.210938 L 487.972656 409.714844 L 493.167969 409.714844 L 493.695312 406.722656 L 488.496094 406.722656 L 489.0625 403.5 L 494.9375 403.5 Z M 505.511719 405.5625 C 505.292969 406.8125 504.484375 407.5625 503.03125 407.5625 L 500.625 407.5625 L 501.316406 403.613281 L 503.722656 403.613281 C 505.171875 403.613281 505.71875 404.382812 505.511719 405.5625 Z M 498 400.390625 L 495.214844 416.320312 L 499.09375 416.320312 L 500.144531 410.304688 L 501.074219 410.304688 L 503.335938 416.320312 L 507.714844 416.320312 L 505.144531 410.011719 C 507.722656 409.285156 509.140625 407.402344 509.488281 405.40625 C 509.972656 402.636719 508.414062 400.390625 504.511719 400.390625 Z M 498 400.390625 " fill-opacity="1" fill-rule="nonzero"/></svg>