<svg xmlns="http://www.w3.org/2000/svg" xmlns:xlink="http://www.w3.org/1999/xlink" width="1080" zoomAndPan="magnify" viewBox="0 0 810 809.999993" height="1080" preserveAspectRatio="xMidYMid meet" version="1.0"><defs><clipPath id="e57287009a"><path d="M 304 393 L 507 393 L 507 412 L 304 412 Z M 304 393 " clip-rule="nonzero"/></clipPath><clipPath id="a296d59979"><path d="M 444.09375 311.046875 L 506.730469 400.863281 L 365.851562 499.105469 L 303.214844 409.285156 Z M 444.09375 311.046875 " clip-rule="nonzero"/></clipPath><clipPath id="e7994636f7"><path d="M 444.09375 311.046875 L 506.730469 400.863281 L 365.851562 499.105469 L 303.214844 409.285156 Z M 444.09375 311.046875 " clip-rule="nonzero"/></clipPath><clipPath id="66a38f1e07"><path d="M 444.144531 311.117188 L 506.636719 400.730469 L 365.898438 498.875 L 303.40625 409.257812 Z M 444.144531 311.117188 " clip-rule="nonzero"/></clipPath></defs><rect x="-81" width="972" fill="#ffffff" y="-80.999999" height="971.999992" fill-opacity="1"/><rect x="-81" width="972" fill="#ffffff" y="-80.999999" height="971.999992" fill-opacity="1"/><g clip-path="url(#e57287009a)"><g clip-path="url(#a296d59979)"><g clip-path="url(#e7994636f7)"><g clip-path="url(#66a38f1e07)"><path fill="#5956e9" d="M 304.617188 408.414062 C 310.988281 406.632812 317.25 404.273438 323.722656 403.183594 C 347.023438 399.265625 370.335938 395.480469 394.089844 395.199219 C 413.734375 394.976562 433.378906 393.351562 453.015625 393.535156 C 467.214844 393.664062 481.40625 395.730469 495.59375 396.960938 C 497.5 397.128906 499.496094 397.199219 501.273438 397.820312 C 503.167969 398.476562 504.859375 399.738281 506.632812 400.734375 C 504.570312 400.972656 502.449219 401.621094 500.449219 401.367188 C 495.625 400.75 490.894531 399.222656 486.074219 398.941406 C 472.75 398.152344 459.398438 397.425781 446.058594 397.402344 C 430.101562 397.382812 414.144531 398.402344 398.183594 398.457031 C 375.132812 398.550781 352.464844 402.128906 329.78125 405.449219 C 321.730469 406.628906 313.90625 409.363281 305.960938 411.316406 C 305.957031 411.324219 305.945312 411.324219 305.9375 411.324219 C 304.695312 411.617188 303.71875 410.207031 304.292969 409.066406 L 304.617188 408.414062 " fill-opacity="1" fill-rule="nonzero"/></g></g></g></g></svg>