<svg xmlns="http://www.w3.org/2000/svg" xmlns:xlink="http://www.w3.org/1999/xlink" width="288" zoomAndPan="magnify" viewBox="0 0 216 72" height="96" preserveAspectRatio="xMidYMid meet" version="1.0"><defs><clipPath id="24aab8e581"><path d="M 7 24 L 209 24 L 209 43 L 7 43 Z M 7 24 " clip-rule="nonzero"/></clipPath><clipPath id="cdd19f8135"><path d="M 146.820312 -57.113281 L 208.964844 32.132812 L 69.246094 129.417969 L 7.105469 40.171875 Z M 146.820312 -57.113281 " clip-rule="nonzero"/></clipPath><clipPath id="a2f96667a1"><path d="M 146.820312 -57.113281 L 208.964844 32.132812 L 69.246094 129.417969 L 7.105469 40.171875 Z M 146.820312 -57.113281 " clip-rule="nonzero"/></clipPath><clipPath id="009ec3bdd6"><path d="M 146.871094 -57.042969 L 208.757812 31.839844 L 69.171875 129.03125 L 7.285156 40.152344 Z M 146.871094 -57.042969 " clip-rule="nonzero"/></clipPath></defs><g clip-path="url(#24aab8e581)"><g clip-path="url(#cdd19f8135)"><g clip-path="url(#a2f96667a1)"><g clip-path="url(#009ec3bdd6)"><path fill="#5956e9" d="M 8.484375 39.3125 C 14.800781 37.550781 21.011719 35.214844 27.429688 34.140625 C 50.527344 30.273438 73.640625 26.535156 97.191406 26.277344 C 116.664062 26.066406 136.140625 24.472656 155.605469 24.667969 C 169.683594 24.804688 183.75 26.863281 197.816406 28.09375 C 199.703125 28.261719 201.679688 28.332031 203.445312 28.949219 C 205.324219 29.601562 206.996094 30.851562 208.753906 31.839844 C 206.707031 32.078125 204.605469 32.71875 202.621094 32.464844 C 197.84375 31.851562 193.152344 30.335938 188.375 30.046875 C 175.167969 29.257812 161.933594 28.527344 148.707031 28.496094 C 132.890625 28.464844 117.070312 29.464844 101.246094 29.507812 C 78.394531 29.585938 55.921875 33.117188 33.429688 36.390625 C 25.449219 37.558594 17.695312 40.261719 9.816406 42.191406 C 9.808594 42.199219 9.800781 42.199219 9.792969 42.199219 C 8.558594 42.488281 7.59375 41.089844 8.164062 39.960938 L 8.484375 39.3125 " fill-opacity="1" fill-rule="nonzero"/></g></g></g></g></svg>