<svg xmlns="http://www.w3.org/2000/svg" xmlns:xlink="http://www.w3.org/1999/xlink" width="288" zoomAndPan="magnify" viewBox="0 0 216 72" height="96" preserveAspectRatio="xMidYMid meet" version="1.0"><defs><clipPath id="57cf9747ee"><path d="M 7.199219 29.449219 L 208.949219 29.449219 L 208.949219 42.199219 L 7.199219 42.199219 Z M 7.199219 29.449219 " clip-rule="nonzero"/></clipPath></defs><g clip-path="url(#57cf9747ee)"><path fill="#ff0000" d="M 102.460938 30.199219 C 102.246094 30.199219 102.03125 30.199219 101.816406 30.199219 C 101.804688 29.890625 102.074219 29.757812 102.261719 29.632812 C 102.472656 29.496094 102.761719 29.5 102.78125 29.886719 C 102.5625 29.878906 102.457031 29.984375 102.460938 30.199219 Z M 102.460938 30.199219 C 102.453125 30.414062 102.5625 30.519531 102.78125 30.511719 C 102.78125 30.40625 102.78125 30.300781 102.78125 30.199219 C 102.675781 30.199219 102.570312 30.199219 102.460938 30.199219 Z M 157.535156 33.171875 C 157.5 33.136719 157.457031 33.070312 157.429688 33.074219 C 157.355469 33.089844 157.285156 33.136719 157.214844 33.171875 C 157.25 33.207031 157.285156 33.242188 157.328125 33.285156 C 157.394531 33.246094 157.464844 33.210938 157.535156 33.171875 Z M 103.105469 30.511719 C 103.585938 30.484375 103.378906 30.125 103.429688 29.886719 C 103.453125 29.910156 103.503906 29.910156 103.566406 29.878906 C 103.632812 29.847656 103.675781 29.765625 103.714844 29.699219 C 103.722656 29.683594 103.652344 29.632812 103.617188 29.597656 C 103.554688 29.648438 103.464844 29.683594 103.433594 29.75 C 103.402344 29.816406 103.402344 29.863281 103.429688 29.886719 C 103.214844 29.886719 103 29.886719 102.785156 29.886719 C 102.785156 29.992188 102.785156 30.097656 102.785156 30.199219 C 103.007812 30.191406 103.113281 30.296875 103.105469 30.511719 Z M 102.785156 30.824219 C 103.007812 30.835938 103.113281 30.730469 103.105469 30.511719 C 103 30.511719 102.890625 30.511719 102.785156 30.511719 C 102.785156 30.617188 102.785156 30.722656 102.785156 30.824219 Z M 102.03125 31.402344 C 102.097656 30.984375 102.808594 31.355469 102.785156 30.824219 C 102.464844 30.824219 102.140625 30.824219 101.820312 30.824219 C 101.894531 31.015625 101.632812 31.324219 102.03125 31.402344 Z M 98.597656 30.980469 C 98.679688 31.035156 98.765625 31.132812 98.839844 31.128906 C 98.980469 31.113281 99.109375 31.035156 99.242188 30.980469 C 99.160156 30.929688 99.082031 30.875 98.960938 30.796875 C 98.851562 30.851562 98.722656 30.917969 98.597656 30.980469 Z M 158.898438 33.542969 C 159.042969 33.726562 159.261719 33.695312 159.433594 33.519531 C 158.828125 33.199219 159.832031 32.769531 159.144531 32.292969 C 159.003906 32.503906 158.867188 32.773438 158.671875 32.992188 C 158.359375 33.347656 158.785156 33.394531 158.898438 33.542969 Z M 100.851562 31.136719 C 100.828125 31.164062 100.824219 31.210938 100.859375 31.277344 C 100.890625 31.339844 100.976562 31.382812 101.046875 31.417969 C 101.058594 31.425781 101.113281 31.359375 101.148438 31.324219 C 101.097656 31.261719 101.058594 31.175781 100.992188 31.148438 C 100.925781 31.113281 100.878906 31.117188 100.851562 31.140625 C 101.003906 30.539062 101.503906 30.949219 101.820312 30.828125 C 101.820312 30.621094 101.820312 30.414062 101.820312 30.203125 C 101.601562 30.203125 101.390625 30.203125 101.175781 30.203125 C 101.144531 30.671875 100.773438 30.46875 100.53125 30.515625 C 100.578125 30.75 100.371094 31.109375 100.851562 31.136719 Z M 101.03125 30.199219 C 101.175781 30.246094 101.21875 30.199219 101.175781 30.050781 C 101.140625 29.917969 101.136719 29.773438 101.085938 29.652344 C 101.042969 29.554688 100.933594 29.574219 100.886719 29.703125 C 100.8125 29.890625 100.828125 30.074219 101.03125 30.199219 Z M 99.546875 30.335938 C 99.28125 30.078125 98.957031 30.230469 98.667969 30.207031 C 98.535156 30.195312 98.398438 30.28125 98.261719 30.324219 C 98.695312 30.339844 99.128906 30.726562 99.546875 30.335938 Z M 100.53125 30.511719 C 100.5 30.429688 100.480469 30.339844 100.4375 30.269531 C 100.382812 30.1875 100.285156 30.207031 100.246094 30.328125 C 100.234375 30.371094 100.335938 30.449219 100.386719 30.511719 C 100.433594 30.511719 100.480469 30.511719 100.53125 30.511719 Z M 91.835938 30.828125 C 92.226562 30.894531 92.316406 30.789062 92.203125 30.398438 C 92.164062 30.257812 92.160156 30.105469 92.15625 29.957031 C 92.148438 29.738281 92.125 29.566406 91.824219 29.566406 C 91.515625 29.566406 91.546875 29.765625 91.503906 29.964844 C 91.421875 30.335938 91.09375 30.15625 90.867188 30.199219 C 90.867188 30.304688 90.867188 30.410156 90.867188 30.511719 C 91.277344 30.359375 91.492188 30.769531 91.835938 30.828125 Z M 93.765625 30.339844 C 93.765625 30.292969 93.765625 30.246094 93.765625 30.199219 C 93.683594 30.226562 93.59375 30.246094 93.519531 30.289062 C 93.433594 30.339844 93.453125 30.4375 93.578125 30.472656 C 93.621094 30.484375 93.703125 30.386719 93.765625 30.339844 Z M 97.898438 31.140625 C 98.421875 31.152344 98.242188 30.773438 98.273438 30.511719 C 97.96875 30.511719 97.667969 30.511719 97.363281 30.511719 C 97.144531 30.511719 96.964844 30.472656 96.984375 30.199219 C 96.933594 30.199219 96.886719 30.191406 96.835938 30.203125 C 96.671875 30.234375 96.640625 30.597656 96.429688 30.417969 C 96.324219 30.324219 96.367188 30.070312 96.339844 29.886719 C 96.1875 29.886719 96.03125 29.910156 95.890625 29.878906 C 95.808594 29.863281 95.734375 29.769531 95.667969 29.703125 C 95.511719 29.535156 95.292969 29.496094 95.15625 29.648438 C 94.933594 29.902344 95.503906 29.933594 95.375 30.199219 C 95.800781 30.511719 96.230469 30.828125 96.660156 31.140625 C 97.078125 31.136719 97.488281 31.132812 97.898438 31.140625 Z M 164.878906 33.121094 C 164.503906 33.257812 164.050781 32.714844 163.699219 33.261719 C 164.113281 33.363281 164.503906 33.382812 164.878906 33.121094 Z M 94.734375 30.511719 C 94.742188 30.296875 94.632812 30.191406 94.410156 30.199219 C 94.402344 30.414062 94.511719 30.519531 94.734375 30.511719 Z M 96.476562 31.414062 C 96.519531 31.425781 96.601562 31.328125 96.664062 31.277344 C 96.664062 31.234375 96.664062 31.1875 96.664062 31.136719 C 96.582031 31.167969 96.492188 31.183594 96.417969 31.226562 C 96.332031 31.28125 96.351562 31.375 96.476562 31.414062 Z M 94.546875 31.097656 C 94.589844 31.109375 94.671875 31.011719 94.734375 30.964844 C 94.734375 30.917969 94.734375 30.871094 94.734375 30.824219 C 94.648438 30.851562 94.558594 30.871094 94.484375 30.914062 C 94.402344 30.964844 94.421875 31.0625 94.546875 31.097656 Z M 95.378906 30.199219 C 95.160156 30.304688 94.949219 30.410156 94.734375 30.511719 C 94.734375 30.617188 94.734375 30.722656 94.734375 30.824219 C 95.257812 30.921875 95.476562 30.710938 95.378906 30.199219 Z M 86.511719 30.203125 C 86.683594 30.171875 86.902344 30.261719 86.964844 30.011719 C 86.972656 29.988281 86.8125 29.929688 86.691406 29.863281 C 86.59375 29.917969 86.441406 29.960938 86.371094 30.058594 C 86.28125 30.179688 86.355469 30.230469 86.511719 30.203125 Z M 94.164062 29.890625 C 93.949219 29.871094 93.742188 29.90625 93.765625 30.199219 C 93.980469 30.199219 94.195312 30.199219 94.410156 30.199219 C 94.449219 30.007812 94.328125 29.910156 94.164062 29.890625 Z M 93.007812 30.761719 C 93.058594 30.753906 93.085938 30.601562 93.121094 30.515625 C 93.136719 30.363281 93.101562 30.226562 92.910156 30.257812 C 92.859375 30.269531 92.816406 30.417969 92.800781 30.507812 C 92.777344 30.65625 92.820312 30.792969 93.007812 30.761719 Z M 98.277344 29.730469 C 98.195312 29.675781 98.113281 29.625 97.992188 29.546875 C 97.886719 29.601562 97.757812 29.664062 97.632812 29.730469 C 97.714844 29.78125 97.800781 29.882812 97.875 29.875 C 98.011719 29.859375 98.140625 29.78125 98.277344 29.730469 Z M 96.742188 29.578125 C 96.527344 29.554688 96.320312 29.589844 96.34375 29.882812 C 96.558594 29.882812 96.773438 29.882812 96.988281 29.882812 C 97.023438 29.695312 96.90625 29.597656 96.742188 29.578125 Z M 97.242188 30.09375 C 97.285156 29.90625 97.144531 29.875 96.988281 29.886719 C 96.988281 29.992188 96.988281 30.097656 96.988281 30.199219 C 97.078125 30.164062 97.230469 30.144531 97.242188 30.09375 Z M 93.226562 31.390625 C 93.304688 31.375 93.371094 31.328125 93.441406 31.292969 C 93.40625 31.257812 93.371094 31.222656 93.328125 31.183594 C 93.261719 31.21875 93.191406 31.253906 93.121094 31.292969 C 93.160156 31.328125 93.203125 31.398438 93.226562 31.390625 Z M 106.003906 29.886719 C 105.972656 29.804688 105.957031 29.714844 105.910156 29.644531 C 105.859375 29.5625 105.761719 29.582031 105.722656 29.703125 C 105.710938 29.746094 105.8125 29.824219 105.859375 29.886719 C 105.910156 29.886719 105.957031 29.886719 106.003906 29.886719 Z M 125.28125 30.398438 C 125.246094 30.335938 125.207031 30.265625 125.167969 30.199219 C 125.128906 30.234375 125.0625 30.277344 125.066406 30.300781 C 125.082031 30.375 125.128906 30.441406 125.167969 30.511719 C 125.203125 30.476562 125.242188 30.441406 125.28125 30.398438 Z M 149.804688 32.234375 C 149.769531 32.195312 149.726562 32.128906 149.699219 32.132812 C 149.625 32.152344 149.554688 32.195312 149.484375 32.234375 C 149.519531 32.269531 149.554688 32.300781 149.597656 32.34375 C 149.664062 32.308594 149.734375 32.269531 149.804688 32.234375 Z M 153.410156 33.121094 C 153.425781 33.191406 153.472656 33.261719 153.511719 33.328125 C 153.546875 33.292969 153.582031 33.261719 153.625 33.21875 C 153.585938 33.152344 153.550781 33.085938 153.511719 33.015625 C 153.472656 33.050781 153.402344 33.09375 153.410156 33.121094 Z M 124.300781 30.929688 C 124.308594 30.902344 124.238281 30.859375 124.203125 30.824219 C 124.164062 30.894531 124.125 30.960938 124.085938 31.027344 C 124.128906 31.070312 124.167969 31.105469 124.203125 31.136719 C 124.238281 31.070312 124.285156 31 124.300781 30.929688 Z M 150.652344 32.640625 C 150.828125 32.570312 150.953125 32.382812 151.105469 32.242188 C 151.011719 32.179688 150.933594 32.09375 150.847656 32.085938 C 150.636719 32.066406 150.4375 32.09375 150.449219 32.386719 C 150.453125 32.535156 150.496094 32.707031 150.652344 32.640625 Z M 117.285156 30.824219 C 117.371094 30.789062 117.527344 30.765625 117.535156 30.714844 C 117.566406 30.53125 117.425781 30.488281 117.273438 30.511719 C 117.179688 30.527344 117.027344 30.570312 117.019531 30.617188 C 116.984375 30.804688 117.125 30.839844 117.285156 30.824219 Z M 121.082031 30.300781 C 121.089844 30.277344 121.019531 30.234375 120.980469 30.199219 C 120.941406 30.265625 120.902344 30.335938 120.867188 30.398438 C 120.910156 30.441406 120.945312 30.476562 120.980469 30.511719 C 121.015625 30.441406 121.066406 30.375 121.082031 30.300781 Z M 118.671875 30.765625 C 118.746094 30.75 118.816406 30.703125 118.886719 30.667969 C 118.851562 30.632812 118.816406 30.597656 118.773438 30.558594 C 118.707031 30.59375 118.636719 30.628906 118.566406 30.667969 C 118.601562 30.703125 118.644531 30.769531 118.671875 30.765625 Z M 137.605469 31.761719 C 137.679688 31.695312 137.929688 31.914062 137.882812 31.621094 C 137.871094 31.554688 137.738281 31.460938 137.671875 31.460938 C 137.535156 31.46875 137.40625 31.535156 137.277344 31.582031 C 137.324219 31.726562 137.433594 31.785156 137.605469 31.761719 Z M 128.871094 30.667969 C 128.789062 30.617188 128.710938 30.5625 128.589844 30.484375 C 128.480469 30.539062 128.355469 30.601562 128.226562 30.667969 C 128.308594 30.722656 128.394531 30.820312 128.472656 30.816406 C 128.609375 30.796875 128.738281 30.722656 128.871094 30.667969 Z M 133.378906 31.449219 C 133.355469 31.476562 133.351562 31.523438 133.386719 31.585938 C 133.417969 31.648438 133.503906 31.691406 133.574219 31.730469 C 133.585938 31.734375 133.636719 31.667969 133.675781 31.632812 C 133.625 31.574219 133.585938 31.484375 133.519531 31.457031 C 133.453125 31.425781 133.40625 31.425781 133.378906 31.449219 C 133.351562 31.367188 133.332031 31.28125 133.289062 31.210938 C 133.234375 31.128906 133.136719 31.148438 133.097656 31.269531 C 133.085938 31.308594 133.1875 31.390625 133.238281 31.449219 C 133.285156 31.449219 133.332031 31.449219 133.378906 31.449219 Z M 143.625 31.554688 C 143.632812 31.527344 143.5625 31.484375 143.527344 31.449219 C 143.488281 31.519531 143.449219 31.585938 143.410156 31.652344 C 143.453125 31.695312 143.492188 31.730469 143.527344 31.761719 C 143.5625 31.695312 143.609375 31.625 143.625 31.554688 Z M 144.605469 31.964844 C 144.570312 31.902344 144.53125 31.832031 144.492188 31.765625 C 144.453125 31.800781 144.386719 31.84375 144.390625 31.867188 C 144.40625 31.941406 144.453125 32.007812 144.492188 32.078125 C 144.527344 32.042969 144.5625 32.007812 144.605469 31.964844 Z M 129.457031 30.929688 C 129.464844 30.902344 129.390625 30.859375 129.355469 30.824219 C 129.316406 30.894531 129.277344 30.960938 129.242188 31.027344 C 129.285156 31.070312 129.320312 31.105469 129.355469 31.136719 C 129.390625 31.070312 129.4375 31 129.457031 30.929688 Z M 106 30.03125 C 106.03125 30.203125 105.941406 30.414062 106.195312 30.476562 C 106.21875 30.480469 106.28125 30.328125 106.351562 30.210938 C 106.292969 30.113281 106.25 29.96875 106.148438 29.898438 C 106.027344 29.808594 105.972656 29.882812 106 30.03125 Z M 153.472656 32.644531 C 153.851562 32.738281 154.265625 32.804688 154.691406 32.53125 C 154.296875 32.371094 153.949219 32.195312 153.585938 32.089844 C 153.40625 32.035156 153.105469 32.015625 153.058594 32.238281 C 153.039062 32.347656 153.296875 32.601562 153.472656 32.644531 Z M 107.296875 30.335938 C 107.34375 30.199219 107.296875 30.15625 107.144531 30.195312 C 107.007812 30.230469 106.859375 30.234375 106.730469 30.285156 C 106.632812 30.324219 106.652344 30.433594 106.785156 30.480469 C 106.976562 30.550781 107.164062 30.535156 107.296875 30.335938 Z M 109.230469 30.199219 C 109.320312 30.164062 109.472656 30.140625 109.484375 30.089844 C 109.515625 29.90625 109.375 29.863281 109.21875 29.886719 C 109.128906 29.902344 108.972656 29.945312 108.964844 29.992188 C 108.933594 30.179688 109.074219 30.210938 109.230469 30.199219 Z M 107.453125 30.203125 C 107.757812 30.152344 107.957031 30.230469 107.949219 30.59375 C 107.945312 30.6875 108.070312 30.960938 108.207031 30.699219 C 108.359375 30.402344 108.144531 29.972656 108.554688 29.753906 C 108.492188 29.691406 108.429688 29.632812 108.324219 29.53125 C 107.992188 29.695312 107.625 29.847656 107.300781 30.054688 C 107.191406 30.128906 107.289062 30.230469 107.453125 30.203125 Z M 104.183594 30.457031 C 104.316406 30.496094 104.460938 30.484375 104.550781 30.488281 C 104.753906 30.390625 104.761719 30.296875 104.605469 30.253906 C 104.472656 30.21875 104.316406 30.222656 104.183594 30.253906 C 104.03125 30.296875 104.03125 30.410156 104.183594 30.457031 Z M 142.867188 32.070312 C 142.867188 32.070312 142.957031 31.949219 143.042969 31.839844 C 142.664062 31.835938 142.25 31.472656 142.078125 32.09375 C 142.066406 32.140625 142.054688 32.210938 142.082031 32.238281 C 142.429688 32.609375 142.53125 31.835938 142.867188 32.070312 Z M 105.316406 30.398438 C 105.277344 30.335938 105.238281 30.265625 105.199219 30.199219 C 105.164062 30.234375 105.09375 30.277344 105.097656 30.300781 C 105.117188 30.375 105.164062 30.441406 105.199219 30.511719 C 105.234375 30.476562 105.273438 30.441406 105.316406 30.398438 Z M 104.074219 30.980469 C 104.035156 30.945312 103.992188 30.878906 103.96875 30.882812 C 103.890625 30.898438 103.824219 30.945312 103.75 30.980469 C 103.789062 31.015625 103.824219 31.050781 103.867188 31.09375 C 103.933594 31.054688 104.003906 31.019531 104.074219 30.980469 Z M 115.929688 29.988281 C 115.933594 29.964844 115.863281 29.921875 115.828125 29.886719 C 115.789062 29.953125 115.75 30.023438 115.714844 30.085938 C 115.757812 30.128906 115.792969 30.164062 115.828125 30.199219 C 115.863281 30.128906 115.910156 30.0625 115.929688 29.988281 Z M 114.484375 30.765625 C 114.558594 30.75 114.628906 30.703125 114.699219 30.667969 C 114.664062 30.632812 114.628906 30.597656 114.585938 30.558594 C 114.519531 30.59375 114.449219 30.628906 114.378906 30.667969 C 114.414062 30.703125 114.457031 30.769531 114.484375 30.765625 Z M 116.585938 30.398438 C 116.550781 30.335938 116.511719 30.265625 116.472656 30.199219 C 116.4375 30.234375 116.367188 30.277344 116.371094 30.300781 C 116.386719 30.375 116.4375 30.441406 116.472656 30.511719 C 116.507812 30.476562 116.542969 30.441406 116.585938 30.398438 Z M 114.316406 29.988281 C 114.324219 29.964844 114.253906 29.921875 114.214844 29.886719 C 114.179688 29.953125 114.140625 30.023438 114.101562 30.085938 C 114.144531 30.128906 114.183594 30.164062 114.214844 30.199219 C 114.253906 30.128906 114.300781 30.0625 114.316406 29.988281 Z M 110.675781 30.824219 C 110.714844 30.757812 110.753906 30.6875 110.789062 30.625 C 110.746094 30.582031 110.710938 30.546875 110.675781 30.511719 C 110.640625 30.582031 110.589844 30.648438 110.574219 30.722656 C 110.566406 30.75 110.640625 30.789062 110.675781 30.824219 Z M 111.628906 30.5 C 111.675781 30.496094 111.714844 30.378906 111.753906 30.3125 C 111.644531 30.132812 111.472656 30.199219 111.328125 30.207031 C 111.285156 30.210938 111.199219 30.355469 111.21875 30.398438 C 111.300781 30.582031 111.488281 30.511719 111.628906 30.5 Z M 185.238281 38.542969 C 185.210938 38.609375 185.230469 38.644531 185.28125 38.652344 C 185.292969 38.605469 185.304688 38.570312 185.328125 38.507812 C 185.292969 38.515625 185.265625 38.53125 185.238281 38.542969 Z M 176.523438 36.242188 C 176.503906 36.203125 176.5 36.179688 176.488281 36.152344 C 176.394531 36.15625 176.253906 36.078125 176.226562 36.21875 C 176.320312 36.265625 176.417969 36.289062 176.523438 36.242188 Z M 187.199219 38.023438 C 187.277344 38.0625 187.371094 38.101562 187.480469 38.136719 C 187.449219 38.101562 187.421875 38.0625 187.398438 38.023438 C 187.320312 38.023438 187.238281 38.015625 187.199219 38.023438 Z M 173.316406 34.894531 C 173.3125 34.898438 173.3125 34.898438 173.308594 34.898438 C 173.3125 34.921875 173.3125 34.945312 173.316406 34.964844 C 173.316406 34.988281 173.316406 34.941406 173.316406 34.894531 Z M 172.886719 33.707031 C 172.695312 33.664062 172.660156 33.804688 172.671875 33.953125 C 172.78125 33.953125 172.886719 33.953125 172.992188 33.953125 C 172.960938 33.867188 172.9375 33.71875 172.886719 33.707031 Z M 160.757812 34.582031 C 160.757812 34.476562 160.757812 34.371094 160.757812 34.269531 C 160.648438 34.269531 160.539062 34.269531 160.433594 34.269531 C 160.433594 34.375 160.433594 34.480469 160.433594 34.582031 C 160.542969 34.582031 160.648438 34.582031 160.757812 34.582031 Z M 173.640625 36.460938 C 173.746094 36.460938 173.855469 36.460938 173.960938 36.460938 C 173.960938 36.25 173.960938 36.042969 173.960938 35.832031 C 173.851562 35.832031 173.746094 35.832031 173.640625 35.832031 C 173.640625 36.042969 173.640625 36.253906 173.640625 36.460938 Z M 90.25 30.855469 C 90.296875 31.375 90.84375 31.203125 91.066406 31.058594 C 91.367188 30.863281 90.722656 30.78125 90.867188 30.511719 C 90.710938 30.523438 90.570312 30.488281 90.613281 30.304688 C 90.625 30.25 90.78125 30.230469 90.867188 30.199219 C 90.824219 29.945312 91.195312 29.863281 91.160156 29.730469 C 91.105469 29.507812 90.785156 29.507812 90.632812 29.585938 C 90.269531 29.765625 89.75 29.707031 89.582031 30.199219 C 90.171875 30.070312 90.207031 30.371094 90.25 30.855469 Z M 168.808594 33.640625 C 168.789062 33.257812 168.5 33.253906 168.289062 33.390625 C 168.101562 33.515625 167.828125 33.648438 167.84375 33.953125 C 168.058594 33.953125 168.269531 33.953125 168.488281 33.953125 C 168.476562 33.738281 168.582031 33.636719 168.808594 33.640625 Z M 78.667969 30.015625 C 78.65625 30.058594 78.757812 30.136719 78.808594 30.199219 C 78.855469 30.199219 78.902344 30.199219 78.953125 30.199219 C 78.921875 30.117188 78.902344 30.027344 78.859375 29.957031 C 78.804688 29.875 78.707031 29.894531 78.667969 30.015625 Z M 52.753906 31.515625 C 52.5625 31.472656 52.53125 31.613281 52.542969 31.761719 C 52.648438 31.761719 52.757812 31.761719 52.863281 31.761719 C 52.828125 31.675781 52.808594 31.527344 52.753906 31.515625 Z M 84.097656 30.507812 C 84.191406 30.488281 84.347656 30.457031 84.359375 30.40625 C 84.402344 30.214844 84.253906 30.191406 84.097656 30.195312 C 83.992188 30.199219 83.886719 30.195312 83.78125 30.195312 C 83.78125 30.300781 83.78125 30.40625 83.78125 30.507812 C 83.886719 30.511719 83.996094 30.527344 84.097656 30.507812 Z M 165.800781 34.335938 C 165.609375 34.292969 165.574219 34.429688 165.585938 34.582031 C 165.695312 34.582031 165.800781 34.582031 165.90625 34.582031 C 165.875 34.496094 165.855469 34.347656 165.800781 34.335938 Z M 162.050781 33.464844 C 162.082031 33.527344 162.167969 33.570312 162.238281 33.609375 C 162.25 33.613281 162.300781 33.546875 162.339844 33.511719 C 162.289062 33.453125 162.25 33.367188 162.183594 33.335938 C 162.117188 33.304688 162.066406 33.304688 162.042969 33.328125 C 162.078125 33.140625 161.960938 33.042969 161.800781 33.023438 C 161.585938 33 161.378906 33.035156 161.402344 33.328125 C 161.613281 33.328125 161.828125 33.328125 162.042969 33.328125 C 162.015625 33.355469 162.015625 33.402344 162.050781 33.464844 Z M 80.171875 31.660156 C 80.214844 31.472656 80.074219 31.441406 79.917969 31.449219 C 79.917969 31.554688 79.917969 31.660156 79.917969 31.761719 C 80.007812 31.730469 80.160156 31.710938 80.171875 31.660156 Z M 81.527344 31.449219 C 81.527344 31.445312 81.527344 31.445312 81.523438 31.441406 C 81.503906 31.445312 81.480469 31.449219 81.457031 31.449219 C 81.429688 31.449219 81.480469 31.449219 81.527344 31.449219 Z M 109.546875 34.578125 C 109.546875 34.582031 109.546875 34.582031 109.546875 34.578125 C 109.546875 34.582031 109.546875 34.582031 109.546875 34.578125 C 109.546875 34.582031 109.546875 34.582031 109.546875 34.578125 Z M 164.925781 35.597656 C 164.929688 35.597656 164.933594 35.601562 164.941406 35.601562 C 164.933594 35.597656 164.929688 35.597656 164.925781 35.597656 Z M 121.144531 34.796875 C 121.121094 34.882812 121.160156 34.917969 121.25 34.894531 C 121.246094 34.847656 121.234375 34.808594 121.234375 34.753906 C 121.195312 34.765625 121.179688 34.78125 121.144531 34.796875 Z M 80.242188 36.453125 C 80.261719 36.546875 80.296875 36.699219 80.347656 36.707031 C 80.546875 36.753906 80.570312 36.605469 80.5625 36.453125 C 80.558594 36.351562 80.5625 36.25 80.5625 36.148438 C 80.453125 36.148438 80.347656 36.148438 80.242188 36.148438 C 80.238281 36.25 80.226562 36.355469 80.242188 36.453125 Z M 186.199219 37.398438 Z M 196.183594 37.246094 C 196.25 37.28125 196.324219 37.320312 196.390625 37.355469 C 196.433594 37.3125 196.46875 37.277344 196.503906 37.246094 C 196.433594 37.210938 196.363281 37.164062 196.289062 37.144531 C 196.261719 37.140625 196.21875 37.210938 196.183594 37.246094 Z M 208.394531 41.652344 C 208.359375 41.6875 208.304688 41.753906 208.292969 41.75 C 208.222656 41.714844 208.136719 41.671875 208.105469 41.609375 C 208.074219 41.542969 208.074219 41.496094 208.097656 41.472656 C 207.898438 41.4375 207.796875 41.554688 207.785156 41.71875 C 207.769531 41.949219 207.6875 42.199219 207.441406 42.085938 C 206.425781 41.621094 205.246094 41.792969 204.246094 41.308594 C 203.878906 41.128906 203.578125 41.050781 203.261719 41.335938 C 203.160156 41.429688 203.074219 41.488281 203.035156 41.398438 C 202.769531 40.75 201.996094 41.003906 201.605469 40.625 C 201.199219 40.230469 200.949219 40.007812 201.011719 40.828125 C 201.027344 41.039062 200.980469 41.246094 200.691406 41.003906 C 200.421875 40.78125 200.007812 40.789062 199.800781 40.457031 C 199.683594 40.265625 199.5 40.207031 199.261719 40.214844 C 198.886719 40.234375 198.582031 40.230469 199.027344 40.660156 C 199.097656 40.726562 199.078125 40.980469 199.003906 41.0625 C 198.828125 41.253906 198.757812 40.992188 198.683594 40.917969 C 198.367188 40.605469 198.085938 40.300781 197.660156 40.800781 C 197.59375 40.882812 197.320312 40.78125 197.21875 40.859375 C 196.707031 41.253906 197.066406 39.753906 196.324219 40.5 C 196.058594 40.761719 195.585938 40.429688 195.238281 40.125 C 194.941406 39.871094 194.402344 39.472656 194.242188 40.34375 C 194.199219 40.578125 193.867188 40.632812 193.742188 40.488281 C 193.070312 39.699219 191.984375 40.144531 191.207031 39.640625 C 190.828125 39.398438 190.347656 39.835938 190.160156 40.042969 C 189.640625 40.605469 189.164062 39.78125 188.671875 40.132812 C 188.46875 40.277344 188.304688 39.890625 188.140625 39.730469 C 188.039062 39.632812 188.273438 39.28125 187.898438 39.378906 C 187.828125 39.394531 187.839844 39.648438 187.777344 39.78125 C 187.691406 39.953125 187.496094 39.871094 187.359375 39.917969 C 187.011719 40.039062 186.691406 39.355469 186.347656 39.898438 C 186.105469 39.441406 185.445312 39.460938 185.238281 38.96875 C 185.210938 38.902344 185.234375 38.796875 185.28125 38.65625 C 185.308594 38.664062 185.328125 38.675781 185.375 38.652344 C 185.4375 38.621094 185.480469 38.539062 185.519531 38.472656 C 185.527344 38.457031 185.457031 38.410156 185.328125 38.515625 C 185.359375 38.421875 185.269531 38.457031 185.238281 38.523438 C 185.230469 38.535156 185.242188 38.539062 185.238281 38.550781 C 184.871094 38.707031 184.691406 39.300781 184.292969 38.84375 C 184.199219 38.734375 183.996094 38.597656 183.96875 38.808594 C 183.863281 39.679688 183.335938 39.304688 182.980469 39.101562 C 182.664062 38.917969 182.285156 38.882812 182.082031 38.996094 C 181.484375 39.328125 181.019531 39.21875 180.386719 39.023438 C 179.875 38.867188 179.257812 38.835938 178.847656 38.507812 C 178.488281 38.222656 177.945312 38.585938 177.726562 38.09375 C 177.386719 38.265625 177.039062 38.578125 176.726562 38.054688 C 176.574219 38.1875 176.429688 38.328125 176.265625 38.445312 C 176.175781 38.511719 176.070312 38.785156 175.9375 38.53125 C 175.59375 37.855469 175.085938 38.347656 174.667969 38.359375 C 174.128906 38.378906 173.832031 38.292969 173.953125 37.6875 C 173.96875 37.613281 173.871094 37.515625 173.828125 37.429688 C 173.765625 37.488281 173.644531 37.558594 173.648438 37.613281 C 173.695312 38.140625 173.261719 38.113281 173.019531 38.007812 C 172.570312 37.808594 172.070312 37.960938 171.636719 37.722656 C 171.425781 37.601562 171.050781 37.097656 171.023438 37.886719 C 171.019531 38.101562 170.789062 37.929688 170.710938 37.828125 C 170.585938 37.675781 170.417969 37.6875 170.277344 37.71875 C 169.238281 37.9375 168.945312 37.882812 168.167969 37.273438 C 167.796875 36.984375 167.535156 37.394531 167.316406 37.5 C 166.75 37.773438 166.660156 37.871094 166.585938 37.476562 C 166.441406 36.734375 166.1875 37.4375 166.046875 37.382812 C 165.445312 37.152344 165.015625 37.402344 164.472656 37.621094 C 164.09375 37.769531 163.300781 37.5 163 37.160156 C 162.453125 36.539062 161.859375 36.863281 161.40625 36.988281 C 160.851562 37.136719 160.769531 37.066406 160.75 36.574219 C 160.738281 36.226562 160.910156 35.851562 160.558594 35.457031 C 160.417969 35.628906 160.160156 35.902344 160.183594 35.929688 C 160.820312 36.601562 160.128906 36.875 159.785156 37.253906 C 159.621094 37.429688 159.382812 37.5 159.246094 37.316406 C 158.820312 36.746094 158.535156 37.390625 158.183594 37.398438 C 158.15625 37.003906 157.90625 37.054688 157.640625 37.148438 C 157.519531 37.191406 157.480469 37.460938 157.3125 37.308594 C 157.230469 37.238281 157.199219 36.972656 157.261719 36.910156 C 157.636719 36.554688 157.542969 36.5 157.066406 36.429688 C 156.824219 36.394531 156.683594 35.90625 156.539062 36.5625 C 156.453125 36.945312 156.085938 37.347656 155.476562 36.847656 C 155.128906 36.566406 154.472656 36.902344 154.03125 36.480469 C 153.914062 36.367188 153.566406 36.441406 153.320312 36.628906 C 152.835938 37.003906 152.695312 36.707031 152.714844 36.25 C 152.722656 36.09375 152.714844 35.941406 152.558594 35.84375 C 152.523438 35.875 152.476562 35.898438 152.449219 35.9375 C 152.273438 36.1875 152.558594 36.558594 152.226562 36.769531 C 152.113281 36.363281 151.410156 36.636719 151.394531 36.03125 C 151.386719 35.746094 150.8125 35.789062 150.832031 35.976562 C 150.902344 36.648438 150.132812 36.335938 150.023438 36.730469 C 149.699219 36.066406 149.039062 37.03125 148.671875 36.464844 C 148.605469 36.363281 148.222656 36.597656 148.292969 36.242188 C 148.304688 36.179688 148.570312 36.179688 148.707031 36.125 C 148.847656 36.070312 148.871094 35.960938 148.765625 35.914062 C 148.320312 35.707031 147.738281 36.023438 147.351562 35.570312 C 147.203125 35.714844 147.039062 35.855469 146.902344 36.011719 C 146.738281 36.203125 146.605469 36.066406 146.609375 35.941406 C 146.613281 35.601562 146.457031 35.453125 146.136719 35.53125 C 145.890625 35.59375 146.003906 35.882812 145.894531 36.035156 C 145.847656 36.101562 145.722656 36.113281 145.628906 36.148438 C 145.597656 36.0625 145.574219 35.910156 145.523438 35.902344 C 145.332031 35.859375 145.296875 35.996094 145.308594 36.148438 C 144.777344 36.253906 145.195312 35.476562 144.644531 35.492188 C 144.320312 35.503906 143.882812 34.996094 144.015625 35.808594 C 144.058594 36.082031 143.871094 36.183594 143.636719 36.144531 C 143.226562 36.074219 143.453125 35.914062 143.597656 35.773438 C 143.636719 35.738281 143.699219 35.691406 143.695312 35.660156 C 143.65625 35.417969 143.808594 35.144531 143.566406 34.917969 C 143.1875 35.140625 142.792969 35.425781 142.515625 35.683594 C 142.234375 35.9375 142.269531 36.261719 141.894531 35.808594 C 141.570312 35.417969 141.417969 35.503906 141.4375 35.988281 C 141.4375 36.019531 141.253906 36.101562 141.230469 36.078125 C 141.074219 35.941406 140.828125 35.792969 140.820312 35.632812 C 140.75 34.613281 140.324219 35.820312 140.15625 35.519531 C 140.117188 35.332031 140.28125 35.050781 140.042969 34.964844 C 139.824219 34.882812 139.34375 34.898438 139.328125 34.953125 C 139.125 35.761719 138.460938 35.671875 138.027344 35.429688 C 137.5 35.136719 137.046875 35.378906 136.609375 35.320312 C 135.886719 35.222656 135.144531 35.332031 134.441406 35.121094 C 134.292969 35.078125 134.164062 34.734375 134.050781 35.121094 C 134.019531 35.234375 134.105469 35.429688 134.203125 35.507812 C 134.320312 35.601562 134.683594 35.414062 134.601562 35.730469 C 134.542969 35.953125 134.230469 35.816406 134.03125 35.828125 C 133.945312 35.835938 133.773438 35.757812 133.773438 35.722656 C 133.839844 34.457031 132.855469 35.007812 132.261719 34.898438 C 132.210938 34.886719 132.15625 34.894531 132.101562 34.894531 C 131.953125 34.628906 132.589844 34.582031 132.304688 34.328125 C 132.066406 34.125 131.84375 34.339844 131.671875 34.53125 C 131.578125 34.636719 131.410156 34.707031 131.457031 34.894531 C 130.976562 35.164062 130.976562 35.164062 130.492188 34.894531 C 130.457031 34.808594 130.4375 34.660156 130.382812 34.648438 C 130.191406 34.605469 130.160156 34.746094 130.171875 34.894531 C 129.871094 34.847656 129.519531 35.03125 129.269531 34.792969 C 128.730469 34.285156 128.636719 34.648438 128.488281 35.101562 C 128.414062 35.328125 128.109375 35.171875 127.917969 35.207031 C 127.460938 34.773438 126.960938 34.5625 126.347656 34.894531 C 126.308594 34.914062 125.40625 34.886719 125.34375 34.898438 C 124.902344 34.964844 124.523438 34.558594 124.003906 34.863281 C 123.550781 35.128906 122.902344 34.847656 122.46875 34.691406 C 121.707031 34.417969 121.796875 34.773438 121.800781 35.210938 C 121.800781 35.316406 121.800781 35.417969 121.800781 35.519531 C 121.484375 35.453125 121.292969 35.269531 121.261719 34.890625 C 121.273438 34.886719 121.277344 34.898438 121.296875 34.890625 C 121.359375 34.859375 121.402344 34.773438 121.441406 34.707031 C 121.449219 34.695312 121.378906 34.644531 121.25 34.75 C 121.285156 34.65625 121.195312 34.695312 121.164062 34.757812 C 121.152344 34.773438 121.164062 34.777344 121.160156 34.792969 C 120.875 34.917969 120.878906 35.109375 120.820312 35.28125 C 120.757812 35.453125 120.578125 35.589844 120.445312 35.738281 C 120.417969 35.773438 120.34375 35.816406 120.339844 35.816406 C 119.820312 35.226562 119.742188 35.988281 119.445312 36.082031 C 119.386719 36.097656 119.234375 36.011719 119.234375 35.992188 C 119.296875 35.609375 118.851562 35.371094 118.957031 34.894531 C 118.984375 34.894531 119 34.910156 119.046875 34.890625 C 119.109375 34.859375 119.152344 34.773438 119.191406 34.707031 C 119.199219 34.695312 119.128906 34.644531 119 34.75 C 119.03125 34.65625 118.945312 34.695312 118.910156 34.757812 C 118.902344 34.773438 118.914062 34.777344 118.910156 34.789062 C 118.304688 35.03125 118.828125 35.660156 118.417969 35.84375 C 118.289062 35.902344 118.175781 36.121094 118.082031 36.105469 C 117.914062 36.078125 117.941406 35.871094 117.9375 35.71875 C 117.929688 35.539062 118.015625 35.269531 117.75 35.253906 C 117.59375 35.242188 117.671875 35.59375 117.609375 35.625 C 117.175781 35.828125 116.820312 36.246094 116.265625 36.140625 C 116.175781 36.121094 116.046875 36.0625 116.023438 35.992188 C 115.96875 35.839844 116.660156 35.707031 116.066406 35.53125 C 115.699219 35.425781 115.734375 35.945312 115.660156 35.96875 C 115.304688 36.0625 114.863281 35.871094 114.753906 35.605469 C 114.621094 35.28125 114.46875 35.054688 114.070312 34.933594 C 114.171875 34.894531 114.183594 34.625 114.265625 34.519531 C 114.492188 34.234375 114.148438 34.273438 114.011719 34.273438 C 113.789062 34.277344 113.472656 34.152344 113.433594 34.539062 C 113.410156 34.765625 113.507812 34.910156 113.953125 34.894531 C 113.371094 35.390625 113.363281 35.40625 112.753906 35.3125 C 112.65625 35.296875 112.554688 35.171875 112.53125 35.308594 C 112.375 36.167969 111.929688 35.921875 111.425781 35.613281 C 111.164062 35.453125 111.125 35.789062 110.976562 35.878906 C 110.488281 36.1875 110.492188 36.199219 109.878906 35.660156 C 109.699219 35.503906 109.511719 35.441406 109.332031 35.601562 C 108.730469 36.132812 108.1875 35.792969 107.5625 35.519531 C 107.539062 35.519531 107.585938 35.519531 107.636719 35.519531 C 107.605469 35.4375 107.585938 35.351562 107.542969 35.28125 C 107.488281 35.199219 107.390625 35.21875 107.351562 35.339844 C 107.339844 35.378906 107.441406 35.460938 107.5625 35.519531 C 107.636719 35.574219 107.660156 35.652344 107.632812 35.671875 C 107.019531 36.136719 106.148438 35.460938 105.578125 36.113281 C 105.328125 35.660156 104.769531 36 104.492188 35.730469 C 104.066406 35.320312 103.582031 35.601562 103.132812 35.523438 C 102.828125 35.472656 102.828125 35.703125 102.796875 35.914062 C 102.777344 36.078125 102.550781 36.242188 102.484375 36.136719 C 102.179688 35.652344 101.28125 36.210938 101.179688 35.394531 C 101.152344 35.167969 100.804688 35.113281 100.683594 35.261719 C 100.46875 35.53125 100.109375 35.460938 99.886719 35.6875 C 99.636719 35.941406 99.25 35.941406 99.039062 35.742188 C 98.609375 35.335938 98.101562 35.484375 97.6875 35.550781 C 96.957031 35.664062 96.261719 35.945312 95.539062 35.53125 C 95.429688 35.46875 95.253906 35.511719 95.105469 35.632812 C 94.78125 35.910156 94.082031 35.929688 93.800781 35.675781 C 93.695312 35.578125 93.917969 35.246094 93.566406 35.285156 C 93.511719 35.292969 93.488281 35.546875 93.453125 35.691406 C 93.109375 35.597656 92.796875 35.671875 92.496094 35.835938 C 92.488281 35.488281 92.570312 35 91.957031 35.285156 C 91.402344 35.539062 90.429688 35.832031 89.726562 35.835938 C 89.03125 35.835938 88.300781 35.707031 87.652344 35.871094 C 86.953125 36.046875 86.324219 36.390625 85.628906 35.90625 C 85.597656 35.882812 85.417969 35.96875 85.421875 35.996094 C 85.445312 36.304688 85.359375 36.515625 84.992188 36.457031 C 84.714844 36.410156 84.816406 36.140625 84.738281 35.976562 C 84.628906 35.757812 84.488281 35.90625 84.453125 36.042969 C 84.390625 36.261719 84.4375 36.6875 84.078125 36.242188 C 83.769531 35.855469 83.40625 35.792969 82.960938 35.832031 C 82.820312 35.847656 81.296875 36.25 81.195312 36.335938 C 80.878906 36.613281 80.855469 35.996094 80.578125 36.148438 C 80.546875 36.0625 80.523438 35.914062 80.472656 35.902344 C 80.28125 35.859375 80.246094 36 80.257812 36.148438 C 79.910156 36.105469 79.503906 36.292969 79.226562 35.929688 C 79.144531 35.820312 79.011719 35.828125 79.011719 35.964844 C 78.992188 36.699219 78.335938 36.132812 78.019531 36.421875 C 77.769531 36.648438 77.132812 36.40625 76.738281 36.765625 C 76.621094 36.871094 76.457031 36.71875 76.390625 36.5625 C 76.339844 36.429688 76.289062 36.292969 76.238281 36.15625 C 76.085938 36.25 76.074219 36.390625 76.058594 36.542969 C 76.054688 36.621094 75.953125 36.691406 75.894531 36.765625 C 75.339844 36.046875 75.179688 37.257812 74.894531 37.003906 C 74.234375 36.417969 73.308594 37.171875 72.679688 36.492188 C 72.488281 36.285156 72.222656 36.605469 72.035156 36.78125 C 71.886719 36.914062 71.785156 37.09375 71.523438 37.097656 C 71.113281 37.105469 71.097656 36.347656 70.585938 36.644531 C 70.320312 36.792969 70.152344 37.292969 69.78125 36.777344 C 69.097656 37.304688 68.242188 36.625 67.550781 37.078125 C 67.214844 37.296875 66.894531 36.648438 66.816406 36.902344 C 66.652344 37.445312 66.527344 37.457031 66.210938 37.050781 C 66.003906 36.78125 65.871094 36.828125 65.625 37.039062 C 65.4375 37.199219 65.128906 37.277344 64.863281 37.296875 C 64.578125 37.320312 64.570312 36.476562 64.070312 37.019531 C 63.734375 37.382812 63.445312 36.554688 63.03125 37.023438 C 62.867188 37.207031 62.328125 37.082031 61.957031 37.085938 C 61.707031 37.085938 61.570312 37.167969 61.570312 37.4375 C 61.570312 37.523438 61.484375 37.609375 61.4375 37.691406 C 60.570312 36.898438 59.980469 37.75 59.269531 38.011719 C 58.992188 38.113281 58.714844 38.070312 58.636719 37.589844 C 58.585938 37.292969 58.15625 37.238281 58.035156 37.710938 C 58.0625 37.6875 58.109375 37.6875 58.175781 37.71875 C 58.242188 37.75 58.28125 37.835938 58.332031 37.894531 C 58.292969 37.929688 58.242188 37.996094 58.230469 37.992188 C 58.160156 37.953125 58.074219 37.914062 58.042969 37.847656 C 58.011719 37.785156 58.011719 37.734375 58.035156 37.710938 C 57.375 37.441406 56.734375 37.554688 56.058594 37.695312 C 55.347656 37.839844 54.566406 37.527344 53.890625 37.863281 C 53.613281 38 53.578125 37.855469 53.417969 37.78125 C 53.167969 37.65625 52.902344 37.636719 52.882812 38.03125 C 52.863281 38.320312 52.734375 38.410156 52.546875 38.160156 C 52.132812 37.617188 51.757812 37.703125 51.613281 38.285156 C 51.433594 39.019531 51.21875 38.371094 51.058594 38.328125 C 50.492188 38.183594 50.769531 38.964844 50.417969 38.890625 C 50.144531 38.828125 50.039062 38.398438 49.695312 38.347656 C 49.609375 38.332031 49.433594 38.382812 49.425781 38.425781 C 49.28125 39.121094 49 39.121094 48.511719 38.667969 C 48.371094 38.53125 48.136719 38.710938 47.976562 38.871094 C 47.804688 39.042969 47.617188 38.996094 47.433594 38.839844 C 46.601562 38.132812 46.554688 38.140625 45.796875 38.964844 C 45.390625 38.949219 44.953125 39.082031 44.652344 38.644531 C 44.316406 38.15625 43.976562 38.300781 43.660156 38.691406 C 43.527344 38.84375 43.351562 39.070312 43.148438 38.953125 C 42.683594 38.683594 42.257812 38.394531 41.800781 38.933594 C 41.402344 38.449219 41.035156 39.160156 40.570312 38.964844 C 40.546875 38.964844 40.59375 38.964844 40.640625 38.964844 C 40.613281 38.882812 40.59375 38.792969 40.546875 38.722656 C 40.496094 38.640625 40.398438 38.660156 40.359375 38.78125 C 40.347656 38.824219 40.449219 38.902344 40.570312 38.964844 C 40.664062 39.253906 40.375 39.367188 40.261719 39.261719 C 39.757812 38.792969 39.78125 39.390625 39.546875 39.503906 C 39.253906 39.644531 39.503906 38.808594 38.953125 38.964844 C 38.796875 39.011719 38.675781 39.089844 38.710938 39.277344 C 38.738281 39.253906 38.785156 39.25 38.851562 39.28125 C 38.917969 39.316406 38.957031 39.402344 39.007812 39.460938 C 38.96875 39.496094 38.917969 39.5625 38.90625 39.554688 C 38.835938 39.519531 38.75 39.476562 38.71875 39.414062 C 38.6875 39.347656 38.6875 39.300781 38.710938 39.277344 C 38.453125 39.40625 38.378906 38.769531 37.957031 39.175781 C 37.550781 39.574219 36.894531 38.875 36.347656 39.265625 C 36.210938 39.359375 36.089844 38.851562 35.898438 39.066406 C 35.511719 39.492188 34.957031 39.078125 34.582031 39.386719 C 34.160156 39.730469 33.667969 39.699219 33.285156 39.453125 C 32.613281 39.019531 32.515625 39.554688 32.273438 39.902344 C 32.296875 39.878906 32.34375 39.878906 32.414062 39.910156 C 32.476562 39.941406 32.515625 40.027344 32.566406 40.085938 C 32.53125 40.121094 32.476562 40.1875 32.464844 40.183594 C 32.398438 40.144531 32.308594 40.105469 32.277344 40.039062 C 32.246094 39.976562 32.246094 39.925781 32.273438 39.902344 C 31.9375 39.96875 31.765625 39.214844 31.351562 39.714844 C 31.007812 40.125 30.914062 39.46875 30.605469 39.578125 C 30.285156 39.691406 29.910156 39.492188 29.585938 39.820312 C 29.371094 40.042969 28.980469 40.132812 28.652344 40.203125 C 28.480469 40.238281 28.234375 40.289062 28.242188 39.914062 C 28.496094 39.898438 28.757812 39.925781 28.726562 39.5625 C 28.71875 39.476562 28.652344 39.398438 28.304688 39.523438 C 28.34375 39.410156 28.257812 39.503906 28.167969 39.644531 C 27.878906 39.894531 27.800781 40.011719 27.765625 40.152344 C 27.742188 40.246094 27.757812 40.382812 27.695312 40.429688 C 27.464844 40.605469 27.449219 40.367188 27.453125 40.261719 C 27.460938 39.945312 27.183594 39.703125 27.015625 39.6875 C 26.773438 39.660156 26.332031 39.816406 26.277344 39.984375 C 26.121094 40.472656 25.867188 40.597656 25.382812 40.542969 C 25.136719 40.515625 24.828125 40.414062 24.625 40.625 C 24.277344 40.984375 24.253906 40.765625 24.214844 40.453125 C 24.203125 40.347656 24.183594 40.171875 23.929688 40.328125 C 23.078125 40.847656 22.183594 40.382812 21.3125 40.324219 C 21.085938 40.3125 20.691406 40.136719 20.585938 40.238281 C 19.964844 40.835938 19.015625 40.238281 18.421875 40.84375 C 17.261719 40.675781 16.171875 41.417969 15.03125 41.132812 C 14.542969 41.011719 14.210938 41.585938 13.660156 41.191406 C 13.238281 40.886719 12.6875 41.445312 12.214844 41.429688 C 11.902344 41.414062 11.648438 41.035156 11.609375 41.664062 C 11.601562 41.835938 11.347656 41.78125 11.195312 41.785156 C 10.605469 41.789062 10 41.699219 9.433594 41.8125 C 8.929688 41.910156 8.535156 41.390625 8.046875 41.695312 C 7.808594 41.84375 7.808594 41.625 7.800781 41.511719 C 7.789062 41.261719 7.726562 41 7.988281 40.804688 C 8.242188 40.621094 7.976562 40.542969 7.875 40.542969 C 7.5 40.550781 7.355469 40.3125 7.507812 40.074219 C 7.59375 39.929688 7.742188 39.382812 8.15625 39.796875 C 8.378906 40.015625 8.382812 39.714844 8.5 39.6875 C 9.292969 39.515625 10.054688 39.289062 10.894531 39.242188 C 12.042969 39.183594 13.183594 38.867188 14.324219 38.652344 C 14.488281 38.621094 14.582031 38.507812 14.5625 38.324219 C 14.523438 38.003906 14.386719 38 14.207031 38.21875 C 14.085938 38.371094 13.929688 38.332031 13.777344 38.339844 C 13.265625 38.378906 12.789062 38.386719 12.9375 37.648438 C 12.96875 37.5 12.828125 37.367188 12.625 37.402344 C 12.980469 36.429688 14.117188 36.714844 14.730469 36.160156 C 15.132812 36.84375 15.546875 36.246094 15.910156 36.128906 C 16.28125 36.015625 16.503906 35.660156 16.976562 36.09375 C 17.324219 36.40625 17.722656 35.589844 18.261719 35.816406 C 18.367188 35.859375 18.5 35.476562 18.765625 35.523438 C 19.984375 35.753906 21.125 35.199219 22.332031 35.160156 C 23.3125 35.128906 24.375 35.082031 25.296875 34.613281 C 25.660156 34.429688 25.996094 35.195312 26.308594 34.585938 C 26.734375 34.769531 26.847656 34.140625 27.304688 34.25 C 27.710938 34.347656 28.210938 34.148438 28.574219 34.296875 C 29.144531 34.535156 29.453125 33.632812 30.003906 34.09375 C 30.328125 34.363281 30.839844 33.554688 31.121094 34.25 C 31.195312 34.1875 31.273438 34.128906 31.347656 34.070312 L 32.511719 33.644531 C 33.726562 33.824219 34.886719 33.355469 36.082031 33.339844 C 36.757812 33.332031 37.324219 32.902344 38.042969 32.992188 C 38.695312 33.078125 39.378906 33.121094 40.015625 32.730469 C 40.207031 32.613281 40.632812 32.582031 40.917969 32.808594 C 41.011719 32.882812 41.097656 33.121094 41.257812 32.886719 C 41.6875 32.242188 42.375 32.316406 42.976562 32.410156 C 43.847656 32.550781 44.59375 32.105469 45.421875 32.0625 C 46.238281 32.015625 47.105469 32.355469 47.886719 31.800781 C 47.964844 31.746094 48.089844 32.015625 48.375 32.121094 C 48.371094 32.148438 48.359375 32.171875 48.378906 32.214844 C 48.410156 32.277344 48.496094 32.320312 48.566406 32.359375 C 48.578125 32.363281 48.632812 32.296875 48.519531 32.171875 C 48.617188 32.203125 48.578125 32.117188 48.515625 32.085938 C 48.507812 32.082031 48.503906 32.089844 48.496094 32.085938 C 48.40625 31.796875 48.574219 31.753906 48.773438 31.773438 C 49.285156 31.816406 49.84375 31.777344 50.300781 31.964844 C 50.683594 32.125 50.839844 32.019531 51.078125 31.808594 C 51.304688 31.609375 52.207031 31.609375 52.558594 31.765625 C 52.59375 31.851562 52.617188 32.003906 52.667969 32.015625 C 52.859375 32.058594 52.890625 31.917969 52.882812 31.765625 C 53.207031 31.785156 53.34375 31.296875 53.707031 31.460938 C 54.601562 31.867188 55.390625 31.488281 56.214844 31.199219 C 56.746094 31.015625 56.960938 31.398438 57.058594 31.808594 C 57.128906 32.09375 57.335938 32.144531 57.515625 32.066406 C 57.875 31.90625 57.5 31.796875 57.445312 31.660156 C 57.347656 31.398438 57.332031 31.109375 57.726562 31.152344 C 58.492188 31.234375 59.304688 30.875 60.03125 31.359375 C 60.566406 30.933594 61.292969 31.609375 61.804688 31.074219 C 62.15625 30.699219 62.519531 30.757812 62.898438 31.019531 C 62.941406 31.046875 62.988281 31.128906 63.011719 31.121094 C 63.535156 30.941406 64.089844 30.890625 64.625 30.777344 C 65.121094 30.671875 65.421875 31.292969 66.007812 30.878906 C 66.34375 30.636719 67.070312 30.445312 67.621094 30.824219 C 68.277344 30.269531 68.988281 31.066406 69.582031 30.796875 C 70.234375 30.503906 70.882812 30.574219 71.539062 30.496094 C 71.917969 30.449219 72.140625 30.695312 72.527344 30.855469 C 72.515625 30.882812 72.507812 30.910156 72.535156 30.960938 C 72.566406 31.023438 72.652344 31.066406 72.722656 31.101562 C 72.734375 31.109375 72.785156 31.042969 72.675781 30.914062 C 72.773438 30.949219 72.734375 30.863281 72.667969 30.828125 C 72.664062 30.828125 72.664062 30.832031 72.660156 30.828125 C 72.578125 30.488281 72.820312 30.308594 72.984375 30.265625 C 73.226562 30.199219 73.089844 30.59375 73.207031 30.683594 C 73.585938 30.972656 74.144531 30.894531 74.4375 30.453125 C 74.585938 30.238281 74.710938 30.230469 74.914062 30.195312 C 75.359375 30.113281 75.796875 30.972656 76.242188 30.199219 C 76.761719 30.257812 77.242188 30.167969 77.710938 29.90625 C 77.839844 29.832031 78.148438 29.785156 78.28125 30.011719 C 78.398438 30.203125 78.335938 30.402344 78.144531 30.535156 C 78.019531 30.617188 77.988281 30.695312 78.09375 30.75 C 78.175781 30.792969 78.300781 30.847656 78.375 30.820312 C 78.667969 30.707031 78.917969 30.535156 78.972656 30.199219 C 79.296875 30.222656 79.410156 29.828125 79.789062 29.867188 C 80.28125 29.917969 80.351562 30.003906 79.972656 30.324219 C 80.027344 30.386719 80.078125 30.492188 80.144531 30.503906 C 80.292969 30.53125 80.53125 30.539062 80.546875 30.378906 C 80.640625 29.46875 81.324219 30.019531 81.734375 29.925781 C 81.84375 29.898438 81.890625 30.066406 81.78125 30.125 C 81.699219 30.167969 81.589844 30.167969 81.5 30.203125 C 81.410156 30.238281 81.328125 30.292969 81.242188 30.339844 C 81.3125 30.398438 81.378906 30.503906 81.449219 30.503906 C 81.902344 30.503906 82.363281 30.597656 82.730469 30.164062 C 83.050781 29.789062 83.46875 29.570312 83.800781 30.199219 C 83.714844 30.234375 83.558594 30.253906 83.546875 30.304688 C 83.503906 30.492188 83.644531 30.523438 83.800781 30.511719 C 83.695312 30.722656 83.585938 30.929688 83.480469 31.140625 C 83.277344 31.035156 83.078125 30.917969 82.867188 30.835938 C 82.796875 30.808594 82.664062 30.847656 82.609375 30.902344 C 82.429688 31.078125 82.707031 31.097656 82.742188 31.203125 C 82.769531 31.285156 82.804688 31.371094 82.835938 31.453125 C 82.679688 31.453125 82.421875 31.507812 82.382812 31.445312 C 82.101562 30.96875 81.855469 31.390625 81.542969 31.441406 C 81.515625 31.363281 81.5 31.277344 81.457031 31.210938 C 81.402344 31.128906 81.304688 31.148438 81.265625 31.269531 C 81.253906 31.3125 81.355469 31.390625 81.476562 31.453125 C 81.527344 31.839844 81.226562 31.851562 81.027344 31.699219 C 80.808594 31.535156 80.871094 31.160156 80.585938 30.96875 C 80.394531 30.84375 80.230469 30.761719 80.042969 30.886719 C 79.832031 31.03125 79.976562 31.265625 79.9375 31.453125 C 79.847656 31.484375 79.695312 31.507812 79.683594 31.558594 C 79.640625 31.746094 79.78125 31.777344 79.9375 31.765625 C 79.972656 31.957031 79.851562 32.0625 79.695312 32.070312 C 79.390625 32.09375 79.0625 32.140625 78.863281 31.816406 C 78.203125 32.097656 78.496094 30.839844 77.792969 31.1875 C 77.945312 31.574219 78.066406 31.964844 78.003906 32.390625 C 77.605469 32.332031 77.519531 31.234375 76.828125 32.0625 C 76.742188 32.164062 76.410156 32.035156 76.210938 32.085938 C 75.835938 32.183594 75.722656 31.703125 75.390625 31.765625 C 75.050781 31.832031 74.949219 32.222656 74.671875 32.316406 C 74.421875 32.394531 74.070312 32.578125 73.949219 32.074219 C 73.960938 32.074219 73.960938 32.078125 73.96875 32.074219 C 74.144531 32.0625 74.421875 32.132812 74.40625 31.890625 C 74.398438 31.746094 74.148438 31.613281 73.910156 31.777344 C 73.851562 31.523438 73.777344 31.636719 73.824219 31.78125 C 73.832031 31.804688 73.824219 31.835938 73.816406 31.867188 C 73.621094 32.050781 73.476562 32.042969 73.359375 32.082031 C 72.722656 32.292969 72.105469 32.570312 71.460938 32.089844 C 71.394531 32.039062 71.207031 32.203125 71.238281 32.386719 C 71.265625 32.363281 71.316406 32.359375 71.378906 32.390625 C 71.445312 32.421875 71.484375 32.507812 71.535156 32.570312 C 71.5 32.605469 71.445312 32.671875 71.433594 32.664062 C 71.363281 32.628906 71.277344 32.585938 71.246094 32.523438 C 71.214844 32.460938 71.214844 32.410156 71.238281 32.386719 C 71.082031 32.386719 70.859375 32.320312 70.773438 32.398438 C 70.296875 32.820312 69.925781 33.058594 69.957031 32.121094 C 69.96875 31.726562 69.699219 31.761719 69.429688 31.757812 C 68.992188 31.757812 68.746094 32.011719 68.679688 32.386719 C 68.605469 32.773438 68.320312 32.804688 68.140625 32.628906 C 67.773438 32.273438 67.53125 32.351562 67.222656 32.671875 C 67.152344 32.75 66.910156 32.761719 66.804688 32.609375 C 66.515625 32.1875 66.410156 32.617188 66.234375 32.71875 C 66.105469 32.789062 66.074219 32.894531 66.175781 32.929688 C 66.367188 33.003906 66.34375 33.390625 66.753906 33.199219 C 67.003906 33.078125 67.375 33.105469 67.695312 33.039062 C 68.152344 32.941406 68.652344 33.042969 69.132812 33.007812 C 70.15625 32.929688 71.226562 33.261719 72.207031 32.707031 C 72.328125 32.640625 72.570312 32.636719 72.675781 32.707031 C 73.949219 33.554688 75.140625 32.609375 76.363281 32.535156 C 76.761719 32.511719 77.089844 32.289062 77.472656 32.625 C 77.671875 32.792969 77.980469 32.785156 78.007812 32.386719 C 78.3125 32.445312 78.671875 32.238281 78.921875 32.503906 C 79.234375 32.835938 79.71875 32.808594 79.949219 32.671875 C 80.695312 32.222656 81.480469 32.46875 82.246094 32.382812 C 83.269531 32.269531 84.273438 31.921875 85.328125 32.074219 C 85.828125 32.148438 86.347656 31.910156 86.835938 32.324219 C 87.210938 32.640625 87.496094 32.007812 87.960938 32.046875 C 88.917969 32.132812 89.886719 32.070312 90.851562 32.070312 C 91.171875 32.070312 91.492188 32.0625 91.816406 32.074219 C 92.085938 32.082031 92.175781 31.957031 92.1875 31.707031 C 92.191406 31.605469 92.324219 31.308594 92.417969 31.554688 C 92.820312 32.589844 93.675781 31.863281 94.277344 32.0625 C 95.636719 31.386719 97.082031 31.90625 98.480469 31.78125 C 98.941406 32.28125 99.378906 31.714844 99.832031 31.710938 C 101.183594 31.691406 102.578125 32.078125 103.894531 31.480469 C 104.320312 31.886719 104.867188 31.679688 105.355469 31.773438 C 105.78125 31.851562 106.003906 31.503906 106.347656 31.445312 C 106.324219 31.417969 106.320312 31.371094 106.355469 31.304688 C 106.386719 31.242188 106.476562 31.207031 106.535156 31.15625 C 106.570312 31.191406 106.640625 31.242188 106.632812 31.253906 C 106.59375 31.320312 106.554688 31.40625 106.488281 31.4375 C 106.421875 31.46875 106.375 31.46875 106.347656 31.441406 C 106.382812 31.53125 106.398438 31.671875 106.464844 31.699219 C 107.210938 32.003906 107.953125 31.46875 108.753906 31.71875 C 109.496094 31.953125 110.230469 31.515625 110.917969 31.207031 C 111.078125 31.132812 111.246094 31.078125 111.351562 31.152344 C 111.675781 31.382812 111.847656 31.898438 112.425781 31.453125 C 112.847656 31.128906 113.144531 31.726562 113.558594 31.78125 C 113.914062 31.824219 114.074219 31.339844 114.335938 31.558594 C 114.65625 31.820312 114.871094 31.8125 115.121094 31.515625 C 115.453125 31.125 115.628906 31.820312 116.027344 31.617188 C 116.375 31.4375 116.84375 31.792969 117.308594 31.46875 C 117.632812 31.238281 118.128906 31.800781 118.644531 31.464844 C 118.902344 31.296875 119.410156 31.535156 119.738281 31.410156 C 120.09375 31.273438 120.296875 32.070312 120.625 31.484375 C 121.65625 32.042969 122.785156 31.566406 123.839844 31.765625 C 124.480469 31.882812 125.042969 31.296875 125.582031 31.554688 C 126.214844 31.855469 126.828125 31.761719 127.425781 31.722656 C 128.1875 31.675781 129.019531 32.078125 129.714844 31.445312 C 129.789062 31.378906 130.007812 31.398438 130.140625 31.546875 C 130.316406 31.734375 130.507812 31.917969 130.726562 32.054688 C 131.148438 32.320312 131.757812 32.234375 132.097656 31.847656 C 132.175781 31.761719 132.09375 31.484375 132.257812 31.46875 C 132.40625 31.453125 132.445312 31.660156 132.433594 31.8125 C 132.390625 32.3125 132.425781 32.34375 132.964844 32.105469 C 133.476562 31.882812 134.167969 32.089844 134.746094 31.757812 C 135.046875 31.585938 135.304688 31.902344 135.566406 32.050781 C 135.691406 32.121094 135.695312 32.085938 136.003906 31.566406 C 136.125 31.363281 136.476562 31.339844 136.519531 31.523438 C 136.644531 32.070312 137.085938 32.324219 137.445312 32.675781 C 137.605469 32.351562 137.753906 32.046875 137.90625 31.742188 C 138.519531 32.421875 138.519531 32.421875 140.132812 32.246094 C 139.9375 31.847656 139.582031 32.132812 139.3125 32.0625 C 139.070312 32 138.785156 32.144531 138.460938 31.835938 C 139.488281 31.683594 140.394531 31.511719 141.042969 32.445312 C 141.449219 33.035156 141.742188 32.375 142.089844 32.371094 C 142.054688 32.5625 142.179688 32.628906 142.335938 32.683594 C 142.628906 32.785156 142.824219 32.296875 142.941406 32.453125 C 143.296875 32.914062 143.433594 32.277344 143.675781 32.375 C 143.902344 32.460938 144.105469 32.617188 144.335938 32.671875 C 144.605469 32.734375 144.820312 32.210938 145.207031 32.65625 C 145.34375 32.8125 145.808594 32.714844 146.28125 32.761719 C 146.28125 32.785156 146.269531 32.792969 146.28125 32.820312 C 146.3125 32.886719 146.398438 32.925781 146.46875 32.964844 C 146.480469 32.972656 146.535156 32.902344 146.425781 32.777344 C 146.480469 32.796875 146.484375 32.773438 146.46875 32.746094 C 147.125 32.214844 147.425781 32.253906 147.875 32.898438 C 147.949219 33.003906 147.898438 33.300781 148.027344 33.277344 C 148.277344 33.234375 148.207031 32.960938 148.207031 32.773438 C 148.203125 32.613281 148.214844 32.445312 148.375 32.382812 C 148.570312 32.304688 148.457031 32.375 148.460938 32.488281 C 148.519531 33.464844 149.183594 32.652344 149.484375 32.839844 C 149.890625 33.09375 150.246094 33.289062 150.765625 33.015625 C 151.136719 32.824219 151.449219 33.128906 151.707031 33.414062 C 151.777344 33.492188 151.878906 33.738281 152.039062 33.5 C 152.628906 32.628906 152.921875 33.417969 153.289062 33.714844 C 153.726562 34.066406 153.886719 34.042969 153.984375 33.386719 C 154.0625 32.867188 154.382812 33.027344 154.664062 33 C 154.925781 32.972656 155.015625 33.203125 155.15625 33.339844 C 155.671875 33.835938 156.296875 33.972656 156.992188 33.941406 C 157.347656 33.925781 157.75 33.824219 157.996094 34.214844 C 158.277344 33.96875 158.605469 33.941406 158.972656 33.925781 C 159.980469 33.886719 160.035156 33.808594 160.128906 32.757812 C 160.140625 32.660156 160.167969 32.566406 160.191406 32.449219 C 160.46875 32.332031 160.515625 32.617188 160.636719 32.722656 C 160.914062 32.976562 160.460938 32.992188 160.453125 33.15625 C 160.441406 33.519531 160.449219 33.886719 160.449219 34.25 C 160.222656 34.289062 159.910156 34.117188 159.8125 34.476562 C 159.789062 34.5625 159.804688 34.6875 159.855469 34.757812 C 160.027344 35 160.070312 34.699219 160.179688 34.664062 C 160.269531 34.636719 160.359375 34.597656 160.449219 34.5625 C 160.484375 34.648438 160.503906 34.800781 160.558594 34.808594 C 160.75 34.851562 160.78125 34.714844 160.769531 34.5625 C 160.859375 34.527344 161.015625 34.507812 161.027344 34.457031 C 161.070312 34.269531 160.925781 34.238281 160.769531 34.25 C 160.707031 33.996094 161.351562 33.777344 160.816406 33.453125 C 160.777344 33.429688 161.203125 33.351562 161.414062 33.3125 C 161.558594 33.84375 161.976562 33.882812 162.460938 33.96875 C 162.816406 34.035156 163.113281 34.5 163.472656 33.976562 C 163.988281 34.152344 164.492188 34.285156 164.753906 33.578125 C 165.011719 33.984375 165.074219 34.46875 165.605469 34.566406 C 165.636719 34.652344 165.660156 34.800781 165.710938 34.8125 C 165.902344 34.855469 165.9375 34.714844 165.925781 34.566406 C 166.082031 34.566406 166.25 34.601562 166.390625 34.554688 C 166.558594 34.496094 166.566406 34.363281 166.40625 34.25 C 166.25 34.140625 166.308594 33.921875 166.417969 33.957031 C 167.074219 34.164062 166.683594 33.214844 167.222656 33.300781 C 167.410156 33.328125 167.511719 33.394531 167.53125 33.550781 C 167.554688 33.757812 167.558594 33.957031 167.859375 33.9375 C 167.472656 34.308594 167.746094 34.75 167.699219 35.15625 C 167.644531 35.648438 167.960938 35.996094 167.933594 36.503906 C 168.515625 35.9375 168.496094 35.945312 168.214844 35.363281 C 168.09375 35.113281 168.164062 34.890625 168.546875 34.867188 C 168.820312 34.851562 168.929688 34.617188 168.601562 34.582031 C 167.574219 34.472656 168.820312 34.101562 168.503906 33.9375 C 168.722656 33.945312 168.832031 33.839844 168.824219 33.625 C 169.027344 33.585938 169.09375 33.710938 169.148438 33.867188 C 169.191406 34.003906 169.105469 34.375 169.425781 34.117188 C 170.109375 33.566406 170.757812 33.800781 171.410156 34.121094 C 171.523438 34.175781 171.621094 34.265625 171.636719 34.171875 C 171.78125 33.1875 172.390625 34.230469 172.691406 33.9375 C 172.722656 34.023438 172.746094 34.175781 172.796875 34.183594 C 172.988281 34.226562 173.023438 34.089844 173.011719 33.9375 C 173.59375 34.074219 173.257812 34.515625 173.320312 34.882812 C 173.242188 34.910156 173.152344 34.925781 173.085938 34.96875 C 173 35.019531 173.019531 35.113281 173.144531 35.152344 C 173.1875 35.164062 173.269531 35.066406 173.332031 34.949219 C 174.074219 34.6875 173.316406 33.921875 173.835938 33.636719 C 174.125 33.953125 173.898438 34.335938 173.984375 34.671875 C 174.019531 34.816406 174.136719 34.925781 174.285156 34.738281 C 174.316406 34.695312 175.785156 34.324219 175.835938 34.335938 C 175.953125 34.359375 175.96875 34.679688 176.171875 34.460938 C 176.476562 34.136719 176.933594 34.089844 177.128906 34.386719 C 177.496094 34.941406 176.761719 34.792969 176.566406 35.007812 C 176.117188 35.507812 176.097656 35.507812 175.589844 35.035156 C 175.449219 34.902344 175.332031 34.882812 175.273438 35.054688 C 175.222656 35.195312 175.257812 35.363281 175.265625 35.519531 C 175.273438 35.710938 175.167969 35.792969 174.992188 35.816406 C 174.8125 35.84375 174.691406 35.769531 174.621094 35.617188 C 174.558594 35.488281 174.742188 35.152344 174.371094 35.296875 C 174.289062 35.332031 174.3125 35.578125 174.242188 35.703125 C 174.203125 35.765625 174.066406 35.777344 173.976562 35.816406 C 173.941406 35.730469 173.917969 35.578125 173.867188 35.570312 C 173.675781 35.527344 173.644531 35.664062 173.652344 35.816406 C 173.09375 35.445312 172.554688 35.28125 172.074219 35.9375 C 172 36.039062 171.867188 36.210938 171.75 35.988281 C 171.671875 35.84375 171.316406 35.847656 171.5 35.558594 C 171.558594 35.464844 171.867188 35.324219 171.597656 35.253906 C 171.09375 35.125 170.78125 34.917969 170.714844 34.386719 C 170.699219 34.222656 170.445312 34.207031 170.316406 34.261719 C 169.953125 34.417969 170.296875 34.523438 170.363281 34.660156 C 170.503906 34.960938 170.652344 35.261719 170.742188 35.582031 C 170.777344 35.714844 170.628906 35.851562 170.433594 35.820312 C 170.398438 35.734375 170.375 35.582031 170.324219 35.570312 C 170.132812 35.53125 170.101562 35.667969 170.109375 35.820312 C 169.792969 35.792969 169.699219 36.085938 169.808594 36.207031 C 170.027344 36.464844 170.671875 36.707031 170.695312 36.597656 C 170.859375 35.863281 171.105469 36.125 171.535156 36.382812 C 171.820312 36.554688 172.355469 36.597656 172.578125 36.351562 C 173.050781 35.820312 173.300781 36.433594 173.652344 36.445312 C 173.6875 36.53125 173.707031 36.679688 173.757812 36.691406 C 173.953125 36.734375 173.984375 36.59375 173.972656 36.445312 C 174.457031 36.746094 174.933594 35.875 175.417969 36.441406 C 175.472656 36.363281 175.570312 36.289062 175.578125 36.210938 C 175.652344 35.4375 175.902344 36.019531 176.238281 36.199219 C 176.234375 36.222656 176.222656 36.234375 176.226562 36.277344 C 176.238281 36.449219 176.164062 36.714844 176.417969 36.703125 C 176.566406 36.695312 176.699219 36.453125 176.535156 36.222656 C 176.792969 36.164062 176.675781 36.089844 176.53125 36.136719 C 176.523438 36.136719 176.511719 36.132812 176.5 36.132812 C 176.3125 35.660156 176.890625 35.914062 177.023438 35.542969 C 177.066406 35.417969 177.230469 35.019531 177.578125 35.390625 C 177.910156 35.746094 177.992188 36.078125 177.644531 36.4375 C 177.550781 36.535156 177.148438 36.324219 177.296875 36.671875 C 177.382812 36.871094 177.585938 37.121094 177.910156 37.070312 C 178.117188 37.035156 178.847656 35.808594 178.765625 35.628906 C 178.679688 35.453125 178.453125 35.570312 178.347656 35.496094 C 178.054688 35.289062 177.734375 35.070312 177.839844 34.628906 C 177.859375 34.535156 177.867188 34.433594 177.910156 34.347656 C 177.972656 34.230469 178.0625 34.246094 178.132812 34.382812 C 178.582031 35.238281 179.152344 34.648438 179.679688 34.492188 C 179.769531 34.464844 179.820312 34.320312 179.910156 34.289062 C 180.113281 34.214844 180.347656 34.210938 180.40625 34.464844 C 180.457031 34.664062 180.425781 34.882812 180.113281 34.882812 C 179.882812 34.886719 179.683594 34.925781 179.941406 35.195312 C 180.117188 34.574219 180.601562 36.191406 180.769531 35.082031 C 180.8125 34.785156 181.265625 34.34375 181.597656 34.597656 C 182.097656 34.984375 182.582031 34.277344 183.046875 34.75 C 183.441406 35.148438 184.097656 34.652344 184.53125 34.992188 C 184.746094 35.15625 184.796875 35.082031 185.003906 34.996094 C 185.476562 34.792969 186.027344 34.753906 186.492188 35.023438 C 186.746094 35.167969 186.882812 35.207031 187.171875 35.070312 C 187.824219 34.769531 187.34375 35.386719 187.5 35.507812 C 187.019531 35.535156 187.226562 35.894531 187.179688 36.136719 C 186.867188 36.191406 186.597656 36.386719 186.628906 36.664062 C 186.648438 36.859375 186.988281 36.726562 187.179688 36.761719 C 187.109375 36.878906 187.027344 36.992188 186.980469 37.117188 C 186.859375 37.414062 186.667969 37.734375 187.214844 38.011719 C 187.207031 38.015625 187.195312 38.015625 187.191406 38.019531 C 187.128906 38.191406 187.257812 38.300781 187.402344 38.320312 C 187.53125 38.335938 187.671875 38.269531 187.496094 38.128906 C 187.746094 38.050781 187.632812 38 187.480469 38.015625 C 187.460938 38.015625 187.4375 38.015625 187.414062 38.015625 C 187.183594 37.683594 187.085938 37.390625 187.554688 37.382812 C 187.847656 37.378906 188.164062 37.5 188.578125 37.152344 C 188.019531 37.089844 187.542969 37.054688 187.179688 36.765625 C 187.179688 36.554688 187.179688 36.347656 187.179688 36.136719 C 187.660156 36.109375 187.453125 35.75 187.5 35.511719 C 188.039062 35.070312 188.683594 35.191406 189.296875 35.207031 C 189.902344 35.222656 190.582031 34.992188 191.035156 35.652344 C 191.253906 35.96875 191.707031 35.914062 191.902344 35.800781 C 192.503906 35.445312 193.027344 35.953125 193.585938 35.832031 C 193.847656 35.773438 193.910156 35.953125 193.953125 36.191406 C 194.019531 36.554688 194.277344 36.527344 194.527344 36.347656 C 195.054688 35.96875 195.609375 36.078125 196.152344 36.277344 C 196.25 36.3125 196.890625 36.566406 196.140625 36.789062 C 195.613281 36.945312 196.023438 37.515625 195.859375 37.847656 C 195.738281 38.09375 195.296875 38.21875 195.980469 38.359375 C 196.691406 38.507812 197.375 38.671875 198.105469 38.652344 C 198.453125 38.644531 198.824219 38.53125 199.160156 38.832031 C 199.34375 38.996094 199.738281 38.554688 199.953125 38.957031 C 200.363281 38.613281 200.675781 39.457031 201.171875 39.015625 C 201.519531 38.703125 201.820312 39.367188 202.289062 39.292969 C 203.011719 39.175781 203.730469 39.257812 204.316406 39.796875 C 204.550781 40.011719 204.597656 39.539062 204.757812 39.628906 C 204.9375 39.726562 205.0625 39.917969 205.222656 40.054688 C 205.296875 40.121094 205.453125 40.214844 205.46875 40.203125 C 206.035156 39.617188 206.59375 40.308594 207.136719 40.203125 C 207.761719 40.078125 208.085938 40.878906 208.792969 40.433594 C 208.609375 40.976562 208.152344 41.070312 208.117188 41.460938 C 208.144531 41.4375 208.191406 41.433594 208.257812 41.464844 C 208.304688 41.507812 208.34375 41.59375 208.394531 41.652344 Z M 172.273438 35.199219 C 172.398438 35.207031 172.535156 35.105469 172.667969 35.054688 C 172.519531 34.917969 172.371094 34.78125 172.214844 34.632812 C 172.164062 34.664062 172.046875 34.699219 172.035156 34.753906 C 172.003906 34.949219 171.988281 35.179688 172.273438 35.199219 Z M 78.953125 31.296875 C 78.988281 31.332031 79.023438 31.363281 79.066406 31.40625 C 79.132812 31.371094 79.203125 31.332031 79.273438 31.296875 C 79.234375 31.261719 79.191406 31.191406 79.167969 31.195312 C 79.089844 31.214844 79.023438 31.261719 78.953125 31.296875 Z M 69.980469 31.25 C 70.015625 31.3125 70.054688 31.382812 70.09375 31.449219 C 70.132812 31.414062 70.199219 31.375 70.195312 31.347656 C 70.179688 31.273438 70.132812 31.207031 70.09375 31.136719 C 70.058594 31.171875 70.023438 31.207031 69.980469 31.25 Z M 13.527344 37.289062 C 13.488281 37.222656 13.449219 37.15625 13.410156 37.085938 C 13.375 37.125 13.304688 37.164062 13.308594 37.191406 C 13.328125 37.261719 13.375 37.332031 13.410156 37.398438 C 13.445312 37.367188 13.484375 37.332031 13.527344 37.289062 Z M 16.105469 38.542969 C 15.976562 38.285156 15.816406 38.0625 15.496094 38.035156 C 15.414062 38.023438 15.320312 38.097656 15.234375 38.132812 C 15.347656 38.398438 15.511719 38.617188 15.832031 38.644531 C 15.917969 38.652344 16.011719 38.582031 16.105469 38.542969 Z M 16.792969 38.183594 C 16.757812 38.148438 16.714844 38.082031 16.6875 38.085938 C 16.613281 38.101562 16.542969 38.148438 16.472656 38.183594 C 16.507812 38.21875 16.542969 38.253906 16.585938 38.296875 C 16.652344 38.257812 16.722656 38.21875 16.792969 38.183594 Z M 24.140625 37.191406 C 24.148438 37.164062 24.074219 37.121094 24.039062 37.085938 C 24 37.15625 23.960938 37.222656 23.925781 37.289062 C 23.96875 37.332031 24.003906 37.367188 24.039062 37.398438 C 24.074219 37.332031 24.121094 37.261719 24.140625 37.191406 Z M 34.507812 35.679688 C 34.46875 35.644531 34.425781 35.574219 34.402344 35.578125 C 34.324219 35.597656 34.257812 35.644531 34.183594 35.679688 C 34.222656 35.714844 34.257812 35.746094 34.300781 35.789062 C 34.367188 35.753906 34.4375 35.714844 34.507812 35.679688 Z M 35.75 35.71875 C 35.710938 35.65625 35.671875 35.535156 35.621094 35.53125 C 35.480469 35.519531 35.292969 35.453125 35.210938 35.632812 C 35.191406 35.675781 35.277344 35.820312 35.320312 35.824219 C 35.464844 35.832031 35.640625 35.902344 35.75 35.71875 Z M 37.726562 35.367188 C 37.691406 35.332031 37.65625 35.296875 37.613281 35.253906 C 37.546875 35.289062 37.476562 35.328125 37.40625 35.367188 C 37.445312 35.402344 37.488281 35.46875 37.511719 35.464844 C 37.585938 35.449219 37.65625 35.398438 37.726562 35.367188 Z M 39.015625 38.496094 C 38.980469 38.460938 38.945312 38.425781 38.902344 38.386719 C 38.835938 38.421875 38.761719 38.457031 38.695312 38.496094 C 38.730469 38.53125 38.773438 38.597656 38.800781 38.59375 C 38.875 38.578125 38.945312 38.53125 39.015625 38.496094 Z M 50.289062 37.394531 C 50.25 37.308594 50.226562 37.160156 50.175781 37.152344 C 49.984375 37.117188 49.941406 37.257812 49.96875 37.40625 C 49.984375 37.496094 50.027344 37.644531 50.078125 37.652344 C 50.265625 37.683594 50.300781 37.546875 50.289062 37.394531 Z M 51.253906 34.113281 C 51.21875 34.074219 51.183594 34.042969 51.140625 34 C 51.074219 34.035156 51 34.074219 50.933594 34.113281 C 50.96875 34.148438 51.011719 34.214844 51.039062 34.210938 C 51.113281 34.195312 51.183594 34.148438 51.253906 34.113281 Z M 54.726562 33.851562 C 54.769531 33.527344 54.472656 33.660156 54.3125 33.648438 C 54.167969 33.636719 53.925781 33.570312 53.898438 33.746094 C 53.851562 34.070312 54.15625 33.914062 54.308594 33.957031 C 54.460938 33.9375 54.703125 34.027344 54.726562 33.851562 Z M 56.085938 33.800781 C 56.003906 33.746094 55.921875 33.695312 55.800781 33.617188 C 55.695312 33.671875 55.566406 33.734375 55.4375 33.800781 C 55.519531 33.851562 55.609375 33.953125 55.683594 33.945312 C 55.820312 33.929688 55.953125 33.851562 56.085938 33.800781 Z M 60.355469 33.128906 C 59.640625 32.875 58.992188 33.261719 58.519531 32.757812 C 58.511719 32.75 58.183594 32.957031 58.097656 33.117188 C 57.992188 33.304688 58.238281 33.269531 58.328125 33.339844 C 59.039062 33.890625 59.644531 33.53125 60.355469 33.128906 Z M 61.175781 33.101562 C 61.0625 33.003906 60.960938 32.914062 60.875 32.816406 C 60.683594 32.605469 60.621094 32.824219 60.605469 32.917969 C 60.566406 33.109375 60.589844 33.324219 60.863281 33.324219 C 60.949219 33.320312 61.039062 33.273438 61.175781 33.101562 Z M 61.242188 33.019531 C 61.292969 32.941406 61.355469 32.847656 61.421875 32.730469 C 61.359375 32.777344 61.273438 32.816406 61.242188 32.878906 C 61.210938 32.949219 61.210938 32.992188 61.242188 33.019531 Z M 61.523438 32.828125 C 61.53125 32.816406 61.480469 32.796875 61.367188 33.011719 C 61.371094 33.011719 61.371094 33.015625 61.378906 33.011719 C 61.441406 32.980469 61.484375 32.894531 61.523438 32.828125 Z M 61.882812 33.328125 C 61.800781 33.359375 61.707031 33.375 61.636719 33.417969 C 61.550781 33.472656 61.570312 33.566406 61.695312 33.605469 C 61.738281 33.617188 61.816406 33.519531 61.882812 33.328125 Z M 62.757812 33.203125 C 62.835938 33.03125 62.5 32.679688 62.355469 32.410156 C 62.566406 32.867188 61.992188 32.933594 61.898438 33.332031 C 62.203125 33.296875 62.632812 33.472656 62.757812 33.203125 Z M 65.730469 32.925781 C 65.726562 32.8125 65.632812 32.617188 65.453125 32.832031 C 65.417969 32.871094 65.375 32.941406 65.339844 32.941406 C 64.980469 32.941406 64.914062 32.476562 64.652344 32.449219 C 64.320312 32.417969 64.589844 33.171875 63.996094 33.03125 C 63.765625 32.976562 63.46875 32.925781 62.925781 33.328125 C 64.003906 33.328125 64.792969 33.339844 65.585938 33.3125 C 65.644531 33.3125 65.738281 33.058594 65.730469 32.925781 Z M 66.070312 31.296875 C 66.105469 31.332031 66.140625 31.363281 66.183594 31.40625 C 66.25 31.371094 66.320312 31.332031 66.390625 31.296875 C 66.351562 31.261719 66.308594 31.191406 66.285156 31.195312 C 66.207031 31.214844 66.140625 31.261719 66.070312 31.296875 Z M 74.398438 36.257812 C 74.355469 36.21875 74.316406 36.179688 74.28125 36.148438 C 74.246094 36.21875 74.199219 36.285156 74.179688 36.359375 C 74.175781 36.382812 74.246094 36.425781 74.28125 36.460938 C 74.320312 36.394531 74.359375 36.324219 74.398438 36.257812 Z M 104.65625 35.105469 C 104.640625 35.03125 104.59375 34.964844 104.554688 34.894531 C 104.519531 34.933594 104.484375 34.964844 104.441406 35.007812 C 104.476562 35.070312 104.515625 35.140625 104.554688 35.207031 C 104.59375 35.171875 104.664062 35.132812 104.65625 35.105469 Z M 105.359375 33.800781 C 105.324219 33.765625 105.28125 33.695312 105.253906 33.699219 C 105.179688 33.71875 105.109375 33.765625 105.039062 33.800781 C 105.074219 33.835938 105.109375 33.867188 105.152344 33.910156 C 105.222656 33.875 105.289062 33.835938 105.359375 33.800781 Z M 106.648438 35.367188 C 106.578125 35.332031 106.507812 35.285156 106.433594 35.265625 C 106.40625 35.261719 106.363281 35.332031 106.328125 35.367188 C 106.398438 35.402344 106.46875 35.441406 106.535156 35.476562 C 106.578125 35.433594 106.613281 35.398438 106.648438 35.367188 Z M 107.960938 34.542969 C 107.882812 34.429688 107.828125 34.347656 107.773438 34.269531 C 107.722656 34.398438 107.640625 34.523438 107.625 34.660156 C 107.617188 34.734375 107.722656 34.816406 107.773438 34.894531 C 107.84375 34.773438 107.90625 34.648438 107.960938 34.542969 Z M 109.550781 34.671875 C 109.554688 34.691406 109.542969 34.695312 109.550781 34.71875 C 109.585938 34.78125 109.671875 34.824219 109.738281 34.863281 C 109.753906 34.867188 109.773438 34.8125 109.550781 34.671875 Z M 109.84375 34.765625 C 109.792969 34.703125 109.753906 34.617188 109.6875 34.585938 C 109.621094 34.554688 109.570312 34.554688 109.546875 34.582031 C 109.515625 34.5 109.5 34.414062 109.453125 34.34375 C 109.398438 34.261719 109.300781 34.28125 109.261719 34.402344 C 109.253906 34.429688 109.308594 34.480469 109.492188 34.582031 C 109.511719 34.582031 109.527344 34.582031 109.542969 34.582031 C 109.539062 34.589844 109.546875 34.605469 109.546875 34.613281 C 109.625 34.65625 109.722656 34.703125 109.84375 34.765625 Z M 110.453125 34.058594 C 110.460938 34.035156 110.390625 33.988281 110.351562 33.957031 C 110.3125 34.023438 110.273438 34.09375 110.238281 34.15625 C 110.28125 34.199219 110.316406 34.234375 110.351562 34.269531 C 110.390625 34.199219 110.4375 34.132812 110.453125 34.058594 Z M 112.078125 34.785156 C 112.039062 34.71875 112.003906 34.652344 111.964844 34.582031 C 111.925781 34.621094 111.859375 34.660156 111.863281 34.6875 C 111.878906 34.761719 111.925781 34.828125 111.964844 34.894531 C 112 34.859375 112.035156 34.828125 112.078125 34.785156 Z M 115.34375 34.890625 C 115.308594 34.804688 115.28125 34.652344 115.230469 34.644531 C 115.042969 34.613281 115 34.75 115.023438 34.898438 C 115.039062 34.992188 115.082031 35.140625 115.132812 35.148438 C 115.324219 35.179688 115.359375 35.042969 115.34375 34.890625 Z M 120.449219 35.097656 C 120.414062 35.03125 120.375 34.964844 120.335938 34.894531 C 120.300781 34.933594 120.230469 34.972656 120.234375 35 C 120.253906 35.070312 120.300781 35.140625 120.335938 35.207031 C 120.375 35.171875 120.40625 35.140625 120.449219 35.097656 Z M 133.703125 34.425781 C 133.667969 34.390625 133.632812 34.355469 133.589844 34.316406 C 133.523438 34.351562 133.449219 34.386719 133.382812 34.425781 C 133.417969 34.460938 133.460938 34.527344 133.488281 34.523438 C 133.5625 34.507812 133.632812 34.460938 133.703125 34.425781 Z M 135.589844 34.695312 C 135.546875 34.652344 135.511719 34.617188 135.476562 34.582031 C 135.4375 34.652344 135.390625 34.71875 135.375 34.792969 C 135.367188 34.820312 135.4375 34.859375 135.476562 34.894531 C 135.511719 34.828125 135.550781 34.761719 135.589844 34.695312 Z M 140.421875 32.90625 C 140.382812 32.839844 140.34375 32.773438 140.304688 32.703125 C 140.269531 32.742188 140.199219 32.78125 140.203125 32.808594 C 140.222656 32.878906 140.269531 32.949219 140.304688 33.015625 C 140.339844 32.980469 140.378906 32.949219 140.421875 32.90625 Z M 144.976562 33.171875 C 144.9375 33.136719 144.894531 33.070312 144.867188 33.074219 C 144.792969 33.089844 144.722656 33.136719 144.652344 33.171875 C 144.691406 33.207031 144.722656 33.242188 144.769531 33.285156 C 144.835938 33.246094 144.90625 33.210938 144.976562 33.171875 Z M 147.230469 33.171875 C 147.195312 33.136719 147.160156 33.101562 147.117188 33.0625 C 147.050781 33.097656 146.976562 33.132812 146.910156 33.171875 C 146.945312 33.207031 146.988281 33.273438 147.015625 33.269531 C 147.089844 33.253906 147.15625 33.207031 147.230469 33.171875 Z M 151.675781 35.316406 C 151.667969 35.269531 151.511719 35.246094 151.421875 35.207031 C 151.265625 35.195312 151.125 35.230469 151.15625 35.410156 C 151.164062 35.460938 151.320312 35.503906 151.410156 35.515625 C 151.566406 35.542969 151.707031 35.5 151.675781 35.316406 Z M 154.578125 35.9375 C 154.585938 35.914062 154.511719 35.871094 154.476562 35.835938 C 154.4375 35.902344 154.398438 35.972656 154.363281 36.035156 C 154.40625 36.078125 154.441406 36.113281 154.476562 36.148438 C 154.511719 36.078125 154.558594 36.011719 154.578125 35.9375 Z M 156.832031 35 C 156.835938 34.972656 156.765625 34.933594 156.730469 34.894531 C 156.691406 34.964844 156.652344 35.03125 156.617188 35.097656 C 156.660156 35.140625 156.695312 35.175781 156.730469 35.207031 C 156.765625 35.140625 156.8125 35.070312 156.832031 35 Z M 159.144531 36.304688 C 159.109375 36.269531 159.066406 36.203125 159.039062 36.207031 C 158.964844 36.222656 158.894531 36.269531 158.824219 36.304688 C 158.859375 36.339844 158.894531 36.375 158.9375 36.417969 C 159.007812 36.378906 159.074219 36.34375 159.144531 36.304688 Z M 161.339844 35.9375 C 161.347656 35.914062 161.277344 35.871094 161.238281 35.835938 C 161.199219 35.902344 161.160156 35.972656 161.125 36.035156 C 161.167969 36.078125 161.203125 36.113281 161.238281 36.148438 C 161.277344 36.078125 161.324219 36.011719 161.339844 35.9375 Z M 161.675781 35.097656 C 161.640625 35.03125 161.601562 34.964844 161.5625 34.894531 C 161.527344 34.933594 161.457031 34.972656 161.460938 35 C 161.476562 35.070312 161.527344 35.140625 161.5625 35.207031 C 161.597656 35.171875 161.632812 35.140625 161.675781 35.097656 Z M 162.269531 34.894531 C 162.300781 34.894531 162.335938 34.894531 162.367188 34.894531 C 162.335938 34.8125 162.320312 34.726562 162.273438 34.65625 C 162.21875 34.574219 162.125 34.59375 162.085938 34.714844 C 162.074219 34.738281 162.125 34.785156 162.269531 34.894531 Z M 162.363281 35.0625 C 162.382812 35.226562 162.3125 35.425781 162.554688 35.484375 C 162.578125 35.488281 162.609375 35.367188 162.363281 35.0625 Z M 162.710938 35.21875 C 162.65625 35.121094 162.609375 34.976562 162.507812 34.90625 C 162.410156 34.835938 162.359375 34.871094 162.355469 34.960938 C 162.445312 35.027344 162.558594 35.109375 162.710938 35.21875 Z M 163.070312 34.683594 C 163.089844 34.757812 163.136719 34.824219 163.171875 34.894531 C 163.210938 34.859375 163.277344 34.816406 163.273438 34.792969 C 163.257812 34.71875 163.210938 34.652344 163.171875 34.582031 C 163.136719 34.617188 163.066406 34.660156 163.070312 34.683594 Z M 163.332031 35.679688 C 163.261719 35.644531 163.191406 35.597656 163.117188 35.578125 C 163.089844 35.574219 163.046875 35.644531 163.011719 35.679688 C 163.082031 35.714844 163.152344 35.753906 163.21875 35.789062 C 163.261719 35.746094 163.296875 35.714844 163.332031 35.679688 Z M 166.542969 35.761719 C 166.460938 35.511719 166.199219 35.171875 165.957031 35.246094 C 165.582031 35.355469 165.277344 35.503906 164.945312 35.210938 C 164.945312 35.328125 164.914062 35.507812 164.925781 35.597656 C 164.789062 35.5625 164.660156 35.527344 164.496094 35.484375 C 164.570312 35.414062 164.933594 35.207031 164.90625 35.066406 C 164.851562 34.789062 164.492188 34.90625 164.257812 34.902344 C 163.972656 34.898438 163.949219 35.117188 163.984375 35.3125 C 164.003906 35.410156 164.085938 35.492188 164.929688 35.601562 C 164.933594 35.628906 164.941406 35.648438 164.953125 35.65625 C 165.398438 35.847656 165.859375 36.011719 166.328125 36.136719 C 166.449219 36.167969 166.546875 36.027344 164.941406 35.601562 C 165.308594 35.648438 165.8125 35.699219 166.542969 35.761719 Z M 167.222656 35.246094 C 167.167969 35.140625 167.101562 35.019531 167.035156 34.894531 C 166.980469 34.972656 166.878906 35.058594 166.882812 35.132812 C 166.898438 35.265625 166.980469 35.390625 167.035156 35.519531 C 167.089844 35.445312 167.144531 35.363281 167.222656 35.246094 Z M 169.761719 35.351562 C 169.773438 35.214844 169.839844 35.046875 169.652344 34.941406 C 169.589844 34.976562 169.464844 35.015625 169.460938 35.0625 C 169.449219 35.199219 169.378906 35.378906 169.566406 35.460938 C 169.609375 35.484375 169.761719 35.398438 169.761719 35.351562 Z M 174.605469 37.246094 C 174.566406 37.210938 174.535156 37.175781 174.492188 37.132812 C 174.421875 37.167969 174.351562 37.207031 174.285156 37.246094 C 174.320312 37.28125 174.363281 37.347656 174.390625 37.34375 C 174.464844 37.324219 174.535156 37.277344 174.605469 37.246094 Z M 181.367188 36.695312 C 181.324219 36.417969 181.085938 36.484375 180.886719 36.457031 C 180.5 36.398438 180.351562 36.703125 179.882812 37.089844 C 180.394531 37.089844 180.644531 37.074219 180.894531 37.09375 C 181.203125 37.113281 181.417969 37.046875 181.367188 36.695312 Z M 184.578125 36.371094 C 184.585938 36.308594 184.472656 36.230469 184.414062 36.164062 C 184.363281 36.246094 184.328125 36.339844 184.265625 36.414062 C 183.828125 36.9375 183.695312 36.917969 183.296875 36.347656 C 183.167969 36.160156 182.984375 36.003906 182.78125 35.789062 C 182.511719 36.445312 182.738281 36.773438 183.234375 37.109375 C 183.632812 37.375 184.125 36.992188 184.4375 37.394531 C 184.753906 37.089844 184.535156 36.710938 184.578125 36.371094 Z M 185.425781 37.386719 C 185.238281 37.339844 185.027344 37.289062 184.757812 37.226562 C 185.007812 37.34375 185.226562 37.375 185.425781 37.386719 Z M 185.71875 35.519531 C 185.753906 35.484375 185.824219 35.445312 185.820312 35.417969 C 185.800781 35.34375 185.753906 35.277344 185.71875 35.207031 C 185.679688 35.246094 185.613281 35.285156 185.617188 35.3125 C 185.632812 35.382812 185.679688 35.453125 185.71875 35.519531 Z M 186.394531 37.679688 C 186.398438 37.679688 186.40625 37.671875 186.324219 37.640625 C 186.347656 37.652344 186.371094 37.667969 186.394531 37.679688 Z M 186.496094 37.582031 C 186.445312 37.523438 186.40625 37.4375 186.339844 37.40625 C 186.273438 37.375 186.222656 37.375 186.199219 37.398438 C 186.160156 37.105469 186.296875 36.789062 186.042969 36.441406 C 185.785156 36.761719 185.492188 37.023438 186.128906 37.398438 C 186.152344 37.398438 186.175781 37.398438 186.199219 37.398438 C 186.191406 37.40625 186.203125 37.425781 186.199219 37.4375 C 186.285156 37.484375 186.378906 37.53125 186.496094 37.582031 Z M 188.835938 36.25 C 188.851562 36.324219 188.898438 36.390625 188.9375 36.460938 C 188.972656 36.425781 189.042969 36.382812 189.039062 36.359375 C 189.019531 36.285156 188.972656 36.21875 188.9375 36.148438 C 188.898438 36.183594 188.832031 36.226562 188.835938 36.25 Z M 189.125 37.363281 C 189.042969 37.246094 188.992188 37.167969 188.9375 37.085938 C 188.882812 37.21875 188.800781 37.34375 188.785156 37.476562 C 188.777344 37.550781 188.882812 37.636719 188.9375 37.714844 C 189 37.589844 189.070312 37.46875 189.125 37.363281 Z M 191.933594 37.503906 C 191.558594 37.640625 191.105469 37.097656 190.753906 37.644531 C 191.164062 37.75 191.558594 37.769531 191.933594 37.503906 Z M 194.917969 37.332031 C 194.816406 37.25 194.824219 36.945312 194.625 37.199219 C 194.429688 37.449219 194.175781 37.40625 193.925781 37.394531 C 193.617188 37.386719 193.585938 37.585938 193.613281 37.789062 C 193.648438 38.066406 193.882812 38.019531 194.085938 38.027344 C 194.601562 38.054688 194.765625 37.707031 194.917969 37.332031 Z M 195.566406 36.8125 C 195.511719 36.707031 195.445312 36.585938 195.378906 36.460938 C 195.324219 36.539062 195.222656 36.625 195.226562 36.699219 C 195.242188 36.832031 195.324219 36.957031 195.378906 37.085938 C 195.433594 37.007812 195.484375 36.929688 195.566406 36.8125 Z M 201.664062 39.992188 C 201.667969 40.011719 201.652344 40.019531 201.664062 40.042969 C 201.695312 40.105469 201.78125 40.148438 201.851562 40.183594 C 201.863281 40.1875 201.882812 40.140625 201.664062 39.992188 Z M 201.953125 40.089844 C 201.902344 40.027344 201.863281 39.941406 201.796875 39.914062 C 201.730469 39.878906 201.683594 39.878906 201.65625 39.90625 C 201.625 39.828125 201.609375 39.738281 201.5625 39.667969 C 201.507812 39.585938 201.414062 39.605469 201.375 39.726562 C 201.363281 39.753906 201.417969 39.804688 201.605469 39.90625 C 201.621094 39.90625 201.636719 39.90625 201.652344 39.90625 C 201.648438 39.914062 201.65625 39.929688 201.65625 39.9375 C 201.734375 39.976562 201.832031 40.027344 201.953125 40.089844 Z M 201.65625 39.902344 C 201.65625 39.902344 201.65625 39.90625 201.65625 39.902344 C 201.65625 39.90625 201.65625 39.90625 201.65625 39.902344 C 201.65625 39.90625 201.65625 39.902344 201.65625 39.902344 Z M 118.890625 34.792969 C 118.871094 34.859375 118.890625 34.890625 118.941406 34.894531 C 118.953125 34.851562 118.960938 34.804688 118.984375 34.753906 C 118.945312 34.761719 118.921875 34.777344 118.890625 34.792969 Z M 69.335938 32.1875 C 69.371094 32.253906 69.410156 32.324219 69.449219 32.390625 C 69.488281 32.355469 69.554688 32.3125 69.550781 32.289062 C 69.535156 32.214844 69.488281 32.148438 69.449219 32.078125 C 69.414062 32.109375 69.378906 32.148438 69.335938 32.1875 Z M 82.816406 31.449219 C 83.019531 32.007812 83.410156 31.804688 83.742188 31.625 C 83.863281 31.558594 84.15625 31.4375 84.011719 31.234375 C 83.933594 31.128906 83.652344 31.164062 83.460938 31.136719 C 83.433594 31.605469 83.058594 31.40625 82.816406 31.449219 Z M 73.933594 32.074219 C 73.914062 31.992188 73.902344 31.898438 73.894531 31.777344 C 73.859375 31.820312 73.832031 31.839844 73.800781 31.871094 C 73.773438 31.972656 73.730469 32.082031 73.933594 32.074219 Z M 146.457031 32.761719 C 146.445312 32.742188 146.429688 32.722656 146.40625 32.707031 C 146.296875 32.660156 146.253906 32.703125 146.265625 32.78125 C 146.316406 32.785156 146.363281 32.785156 146.414062 32.792969 C 146.425781 32.78125 146.4375 32.773438 146.457031 32.761719 Z M 28.140625 39.644531 C 28.117188 39.683594 28.09375 39.722656 28.070312 39.761719 C 27.992188 39.894531 28.0625 39.921875 28.214844 39.914062 C 28.21875 39.914062 28.21875 39.914062 28.21875 39.914062 C 28.222656 39.816406 28.238281 39.691406 28.285156 39.527344 C 28.226562 39.570312 28.191406 39.605469 28.140625 39.644531 Z M 48.476562 32.082031 C 48.402344 32.050781 48.363281 32.074219 48.355469 32.121094 C 48.402344 32.136719 48.445312 32.164062 48.5 32.171875 C 48.488281 32.132812 48.488281 32.109375 48.476562 32.082031 Z M 72.644531 30.828125 C 72.566406 30.796875 72.523438 30.8125 72.511719 30.855469 C 72.558594 30.875 72.601562 30.898438 72.660156 30.914062 C 72.644531 30.882812 72.648438 30.859375 72.644531 30.828125 Z M 170.417969 35.835938 C 170.3125 35.835938 170.203125 35.835938 170.097656 35.835938 C 170.132812 35.921875 170.152344 36.074219 170.207031 36.082031 C 170.398438 36.125 170.429688 35.988281 170.417969 35.835938 Z M 114.273438 35.578125 C 114.199219 35.597656 114.128906 35.644531 114.058594 35.679688 C 114.09375 35.714844 114.128906 35.746094 114.171875 35.789062 C 114.238281 35.753906 114.308594 35.714844 114.378906 35.679688 C 114.34375 35.644531 114.296875 35.574219 114.273438 35.578125 Z M 82.496094 36.304688 C 82.53125 36.339844 82.574219 36.40625 82.601562 36.402344 C 82.675781 36.386719 82.746094 36.339844 82.816406 36.304688 C 82.78125 36.269531 82.746094 36.234375 82.703125 36.195312 C 82.636719 36.230469 82.5625 36.265625 82.496094 36.304688 Z M 126.398438 35.53125 C 126.261719 35.539062 126.132812 35.605469 126 35.652344 C 126.054688 35.796875 126.160156 35.855469 126.335938 35.832031 C 126.40625 35.761719 126.65625 35.984375 126.609375 35.691406 C 126.597656 35.625 126.46875 35.53125 126.398438 35.53125 Z M 46.804688 38.863281 C 46.796875 38.890625 46.871094 38.933594 46.90625 38.964844 C 46.945312 38.898438 46.984375 38.832031 47.019531 38.765625 C 46.976562 38.722656 46.941406 38.6875 46.90625 38.652344 C 46.871094 38.722656 46.820312 38.789062 46.804688 38.863281 Z M 125.011719 35.832031 C 124.855469 35.820312 124.714844 35.855469 124.746094 36.039062 C 124.753906 36.085938 124.910156 36.128906 125 36.144531 C 125.15625 36.167969 125.296875 36.128906 125.265625 35.941406 C 125.257812 35.894531 125.101562 35.871094 125.011719 35.832031 Z M 122.761719 35.980469 C 122.769531 36.03125 122.890625 36.066406 122.925781 36.085938 C 123.089844 35.941406 123.238281 35.808594 123.390625 35.675781 C 123.257812 35.625 123.117188 35.523438 122.992188 35.535156 C 122.714844 35.558594 122.726562 35.789062 122.761719 35.980469 Z M 121.8125 35.523438 C 121.792969 35.761719 121.523438 35.820312 121.496094 35.984375 C 121.476562 36.097656 121.675781 36.164062 121.832031 36.148438 C 122.113281 36.128906 122.113281 35.9375 122.105469 35.738281 C 122.046875 35.601562 121.816406 35.476562 121.8125 35.523438 Z M 46.078125 38.964844 C 45.980469 38.972656 45.800781 38.9375 45.792969 38.96875 C 45.730469 39.136719 45.855469 39.25 46.003906 39.269531 C 46.132812 39.289062 46.269531 39.21875 46.40625 39.1875 C 46.34375 39 46.234375 38.949219 46.078125 38.964844 Z M 12.078125 38.03125 C 12.316406 38.003906 12.613281 38.085938 12.609375 37.679688 C 12.652344 37.242188 12.257812 37.1875 11.964844 37.101562 C 11.703125 37.019531 11.640625 37.242188 11.640625 37.460938 C 11.640625 37.757812 11.578125 38.085938 12.078125 38.03125 Z M 85.339844 30.957031 C 85.445312 31.085938 84.988281 31.152344 85.164062 31.375 C 85.277344 31.511719 85.558594 31.722656 85.585938 31.699219 C 86.1875 31.207031 87.125 31.46875 87.648438 30.824219 C 87.097656 30.847656 86.683594 30.609375 86.359375 30.195312 C 86.253906 30.195312 86.09375 30.242188 86.054688 30.191406 C 85.652344 29.714844 85.273438 30.191406 84.902344 30.230469 C 84.707031 30.25 84.664062 30.570312 84.828125 30.722656 C 84.957031 30.84375 85.234375 30.828125 85.339844 30.957031 Z M 87.648438 30.824219 C 87.539062 30.609375 87.382812 30.402344 87.332031 30.171875 C 87.234375 29.691406 87.46875 29.449219 87.917969 29.582031 C 88.484375 29.75 89.027344 29.992188 89.578125 30.199219 C 89.644531 30.46875 90.179688 30.871094 89.363281 30.886719 C 89.328125 30.886719 89.292969 31.046875 89.257812 31.136719 C 89.285156 31.113281 89.332031 31.109375 89.398438 31.140625 C 89.460938 31.175781 89.5 31.261719 89.554688 31.320312 C 89.515625 31.355469 89.460938 31.421875 89.453125 31.414062 C 89.382812 31.378906 89.292969 31.335938 89.265625 31.273438 C 89.230469 31.207031 89.230469 31.160156 89.257812 31.136719 C 88.9375 31.113281 88.820312 31.578125 88.449219 31.453125 C 88.3125 31.40625 88.0625 31.519531 88.039062 31.339844 C 88 31.027344 88.3125 31.195312 88.453125 31.125 C 88.632812 31.035156 88.59375 30.863281 88.429688 30.835938 C 88.175781 30.792969 87.910156 30.824219 87.648438 30.824219 Z M 87.96875 30.042969 C 87.898438 30.003906 87.828125 29.960938 87.753906 29.941406 C 87.726562 29.9375 87.683594 30.003906 87.648438 30.042969 C 87.71875 30.078125 87.789062 30.117188 87.855469 30.152344 C 87.898438 30.109375 87.933594 30.078125 87.96875 30.042969 Z M 29.996094 40.375 C 30.078125 40.429688 30.164062 40.527344 30.242188 40.523438 C 30.378906 40.507812 30.507812 40.429688 30.640625 40.375 C 30.558594 40.324219 30.480469 40.269531 30.359375 40.191406 C 30.25 40.246094 30.125 40.3125 29.996094 40.375 Z M 41.960938 39.390625 C 41.996094 39.453125 42.035156 39.523438 42.074219 39.589844 C 42.113281 39.554688 42.179688 39.515625 42.175781 39.488281 C 42.160156 39.414062 42.113281 39.347656 42.074219 39.277344 C 42.039062 39.316406 42.003906 39.347656 41.960938 39.390625 Z M 11.273438 37.914062 C 11.234375 37.851562 11.195312 37.78125 11.15625 37.714844 C 11.121094 37.75 11.050781 37.792969 11.058594 37.816406 C 11.074219 37.890625 11.121094 37.957031 11.15625 38.027344 C 11.191406 37.992188 11.230469 37.957031 11.273438 37.914062 Z M 26.917969 40.539062 C 26.851562 40.503906 26.800781 40.503906 26.773438 40.53125 C 26.746094 40.449219 26.730469 40.363281 26.683594 40.292969 C 26.628906 40.210938 26.53125 40.230469 26.492188 40.351562 C 26.480469 40.390625 26.582031 40.472656 26.628906 40.53125 C 26.679688 40.53125 26.726562 40.53125 26.773438 40.53125 C 26.75 40.558594 26.746094 40.605469 26.78125 40.667969 C 26.8125 40.730469 26.898438 40.773438 26.96875 40.8125 C 26.980469 40.816406 27.03125 40.75 27.070312 40.714844 C 27.019531 40.652344 26.984375 40.570312 26.917969 40.539062 Z M 114.054688 34.9375 C 114.011719 34.921875 113.980469 34.90625 113.933594 34.894531 C 113.984375 34.941406 114.023438 34.949219 114.054688 34.9375 Z M 131.691406 35.203125 C 131.910156 35.226562 132.117188 35.191406 132.09375 34.894531 C 131.875 34.894531 131.664062 34.894531 131.445312 34.894531 C 131.414062 35.085938 131.53125 35.183594 131.691406 35.203125 Z M 145.40625 36.394531 C 145.597656 36.4375 145.628906 36.300781 145.621094 36.148438 C 145.511719 36.148438 145.402344 36.148438 145.296875 36.148438 C 145.332031 36.234375 145.351562 36.386719 145.40625 36.394531 Z M 157.992188 37.675781 C 158.035156 37.6875 158.117188 37.589844 158.179688 37.539062 C 158.179688 37.496094 158.179688 37.449219 158.179688 37.398438 C 158.09375 37.429688 158.003906 37.445312 157.929688 37.488281 C 157.847656 37.542969 157.867188 37.636719 157.992188 37.675781 Z M 129.265625 36.238281 C 129.183594 36.289062 129.203125 36.386719 129.328125 36.421875 C 129.371094 36.433594 129.453125 36.335938 129.515625 36.289062 C 129.515625 36.242188 129.515625 36.195312 129.515625 36.148438 C 129.433594 36.175781 129.339844 36.195312 129.265625 36.238281 Z M 92.292969 36.109375 C 92.335938 36.121094 92.417969 36.023438 92.480469 35.972656 C 92.480469 35.929688 92.480469 35.882812 92.480469 35.832031 C 92.394531 35.863281 92.304688 35.878906 92.230469 35.921875 C 92.144531 35.976562 92.167969 36.070312 92.292969 36.109375 Z M 151.632812 36.832031 C 151.554688 36.851562 151.488281 36.898438 151.417969 36.933594 C 151.453125 36.96875 151.488281 37 151.53125 37.042969 C 151.597656 37.007812 151.667969 36.96875 151.738281 36.933594 C 151.703125 36.898438 151.660156 36.828125 151.632812 36.832031 Z M 127.207031 35.402344 C 127.046875 35.574219 126.933594 35.847656 126.617188 35.832031 C 126.617188 35.886719 126.597656 35.953125 126.621094 35.988281 C 126.957031 36.449219 127.289062 35.773438 127.484375 35.933594 C 127.765625 36.167969 128.21875 36.085938 128.390625 36.457031 C 128.5 36.347656 128.605469 36.226562 128.730469 36.132812 C 128.933594 35.980469 128.71875 35.914062 128.6875 35.796875 C 128.582031 35.390625 127.902344 35.722656 127.90625 35.207031 C 127.65625 35.210938 127.414062 35.171875 127.207031 35.402344 Z M 130.269531 35.144531 C 130.460938 35.183594 130.492188 35.046875 130.484375 34.894531 C 130.375 34.894531 130.265625 34.894531 130.160156 34.894531 C 130.195312 34.980469 130.214844 35.132812 130.269531 35.144531 Z M 131.882812 35.582031 C 131.832031 35.59375 131.789062 35.742188 131.773438 35.832031 C 131.75 35.980469 131.792969 36.117188 131.980469 36.085938 C 132.03125 36.078125 132.058594 35.929688 132.09375 35.84375 C 132.105469 35.6875 132.070312 35.550781 131.882812 35.582031 Z M 147.550781 36.617188 C 147.589844 36.652344 147.632812 36.71875 147.65625 36.714844 C 147.734375 36.699219 147.800781 36.652344 147.871094 36.617188 C 147.835938 36.582031 147.800781 36.546875 147.757812 36.507812 C 147.691406 36.542969 147.621094 36.578125 147.550781 36.617188 Z M 132.9375 35.566406 C 132.875 35.605469 132.75 35.644531 132.746094 35.6875 C 132.734375 35.828125 132.664062 36.007812 132.847656 36.089844 C 132.890625 36.109375 133.042969 36.023438 133.046875 35.980469 C 133.054688 35.84375 133.125 35.671875 132.9375 35.566406 Z M 129.507812 36 C 129.5 36.148438 129.546875 36.230469 129.660156 36.140625 C 129.835938 36 129.96875 35.808594 130.117188 35.636719 C 130.035156 35.597656 129.949219 35.5625 129.863281 35.519531 C 129.496094 35.507812 129.523438 35.75 129.507812 36 Z M 136.929688 35.832031 C 136.769531 35.820312 136.632812 35.855469 136.664062 36.039062 C 136.671875 36.085938 136.824219 36.128906 136.917969 36.144531 C 137.070312 36.167969 137.214844 36.128906 137.179688 35.941406 C 137.175781 35.894531 137.015625 35.871094 136.929688 35.832031 Z M 139.996094 35.53125 C 139.929688 35.542969 139.828125 35.667969 139.832031 35.738281 C 139.839844 35.867188 139.910156 35.992188 139.957031 36.121094 C 140.109375 36.066406 140.167969 35.964844 140.140625 35.796875 C 140.070312 35.730469 140.296875 35.484375 139.996094 35.53125 Z M 139.996094 35.53125 " fill-opacity="1" fill-rule="nonzero"/></g></svg>